<svg xmlns="http://www.w3.org/2000/svg" width="187.591" height="142.418" viewBox="0 0 187.591 142.418">
  <defs>
    <style>
      .cls-1 {
        fill: #f2f2f2;
      }

      .cls-2 {
        fill: #3f3d56;
      }

      .cls-3 {
        opacity: 0.1;
      }

      .cls-4 {
        fill: #6c63ff;
      }

      .cls-5 {
        fill: #2f2e41;
      }

      .cls-6 {
        fill: #fbbebe;
      }
    </style>
  </defs>
  <g id="グループ化_51" data-name="グループ化 51" transform="translate(0 0)">
    <path id="パス_283" data-name="パス 283" class="cls-1" d="M150.64,148.417c-40.376-3.073-88.527-34.358-86.076-66.571s49.086-62.2,89.462-59.128,63.618,63.274,61.167,95.487S191.016,151.489,150.64,148.417Z" transform="translate(-59.882 -22.5)"/>
    <ellipse id="楕円形_18" data-name="楕円形 18" class="cls-2" cx="84.285" cy="5.164" rx="84.285" ry="5.164" transform="translate(9.86 120.763)"/>
    <ellipse id="楕円形_19" data-name="楕円形 19" class="cls-3" cx="71.792" cy="3.415" rx="71.792" ry="3.415" transform="translate(22.353 122.429)"/>
    <ellipse id="楕円形_20" data-name="楕円形 20" class="cls-2" cx="35.345" cy="3.082" rx="35.345" ry="3.082" transform="translate(0 136.255)"/>
    <ellipse id="楕円形_21" data-name="楕円形 21" class="cls-3" cx="30.106" cy="2.038" rx="30.106" ry="2.038" transform="translate(5.239 137.249)"/>
    <rect id="長方形_102" data-name="長方形 102" class="cls-2" width="125.261" height="98.276" transform="translate(32.68 26.984)"/>
    <path id="パス_284" data-name="パス 284" class="cls-1" d="M444.049,261.376h-30.9a.375.375,0,1,1,0-.75h30.9a.375.375,0,1,1,0,.75Z" transform="translate(-350.164 -220.962)"/>
    <path id="パス_285" data-name="パス 285" class="cls-1" d="M558.561,286.142h-48.6a.375.375,0,0,1,0-.75h48.6a.375.375,0,1,1,0,.75Z" transform="translate(-430.849 -241.602)"/>
    <path id="パス_286" data-name="パス 286" class="cls-1" d="M444.949,310.908h-30.9a.375.375,0,1,1,0-.75h30.9a.375.375,0,1,1,0,.75Z" transform="translate(-350.914 -262.242)"/>
    <path id="パス_287" data-name="パス 287" class="cls-1" d="M647.128,311.358h-30.9a.375.375,0,0,1,0-.75h30.9a.375.375,0,0,1,0,.75Z" transform="translate(-519.416 -262.618)"/>
    <path id="パス_288" data-name="パス 288" class="cls-1" d="M445.4,335.673H414.5a.375.375,0,0,1,0-.75h30.9a.375.375,0,0,1,0,.75Z" transform="translate(-351.289 -282.883)"/>
    <path id="パス_289" data-name="パス 289" class="cls-1" d="M445.85,360.439h-30.9a.375.375,0,1,1,0-.75h30.9a.375.375,0,0,1,0,.75Z" transform="translate(-351.665 -303.523)"/>
    <path id="パス_290" data-name="パス 290" class="cls-1" d="M640.386,261.827h-8.851a.375.375,0,0,1,0-.75h8.851a.375.375,0,1,1,0,.75Z" transform="translate(-532.175 -221.337)"/>
    <path id="パス_291" data-name="パス 291" class="cls-1" d="M640.386,335.673h-8.851a.375.375,0,0,1,0-.75h8.851a.375.375,0,1,1,0,.75Z" transform="translate(-532.175 -282.883)"/>
    <path id="パス_292" data-name="パス 292" class="cls-1" d="M640.386,359.989h-8.851a.375.375,0,0,1,0-.75h8.851a.375.375,0,1,1,0,.75Z" transform="translate(-532.175 -303.148)"/>
    <path id="パス_293" data-name="パス 293" class="cls-1" d="M729.543,359.989h-8.85a.375.375,0,0,1,0-.75h8.85a.375.375,0,1,1,0,.75Z" transform="translate(-606.481 -303.148)"/>
    <path id="パス_294" data-name="パス 294" class="cls-1" d="M421.547,286.142H412.7a.375.375,0,0,1,0-.75h8.851a.375.375,0,0,1,0,.75Z" transform="translate(-349.788 -241.602)"/>
    <path id="パス_295" data-name="パス 295" class="cls-1" d="M444.274,626.108h-30.9a.375.375,0,0,1,0-.75h30.9a.375.375,0,1,1,0,.75Z" transform="translate(-350.351 -524.94)"/>
    <path id="パス_296" data-name="パス 296" class="cls-1" d="M443.373,675.639h-30.9a.375.375,0,1,1,0-.75h30.9a.375.375,0,1,1,0,.75Z" transform="translate(-349.601 -566.22)"/>
    <path id="パス_297" data-name="パス 297" class="cls-1" d="M443.824,700.4h-30.9a.375.375,0,1,1,0-.75h30.9a.375.375,0,1,1,0,.75Z" transform="translate(-349.976 -586.861)"/>
    <path id="パス_298" data-name="パス 298" class="cls-1" d="M633.407,676.089h-8.85a.375.375,0,0,1,0-.75h8.85a.375.375,0,1,1,0,.75Z" transform="translate(-526.358 -566.596)"/>
    <path id="パス_299" data-name="パス 299" class="cls-1" d="M633.407,700.4h-8.85a.375.375,0,1,1,0-.75h8.85a.375.375,0,1,1,0,.75Z" transform="translate(-526.358 -586.861)"/>
    <path id="パス_300" data-name="パス 300" class="cls-1" d="M722.563,676.089h-8.851a.375.375,0,0,1,0-.75h8.851a.375.375,0,1,1,0,.75Z" transform="translate(-600.664 -566.596)"/>
    <path id="パス_301" data-name="パス 301" class="cls-1" d="M558.786,650.873h-48.6a.375.375,0,0,1,0-.75h48.6a.375.375,0,1,1,0,.75Z" transform="translate(-431.037 -545.58)"/>
    <path id="パス_302" data-name="パス 302" class="cls-1" d="M421.773,650.873h-8.85a.375.375,0,0,1,0-.75h8.85a.375.375,0,0,1,0,.75Z" transform="translate(-349.976 -545.58)"/>
    <path id="パス_303" data-name="パス 303" class="cls-1" d="M558.786,725.621h-48.6a.375.375,0,0,1,0-.75h48.6a.375.375,0,1,1,0,.75Z" transform="translate(-431.037 -607.877)"/>
    <path id="パス_304" data-name="パス 304" class="cls-1" d="M421.773,725.621h-8.85a.375.375,0,0,1,0-.75h8.85a.375.375,0,0,1,0,.75Z" transform="translate(-349.976 -607.877)"/>
    <path id="パス_305" data-name="パス 305" class="cls-4" d="M459.015,401.13l-12,11.851,12,11.851,2.7-2.7-9.076-9.076,9.15-9.151Z" transform="translate(-372.555 -334.314)"/>
    <path id="パス_306" data-name="パス 306" class="cls-4" d="M611.442,401.13l12,11.851-12,11.851-2.7-2.7,9.076-9.076-9.151-9.151Z" transform="translate(-507.281 -334.314)"/>
    <circle id="楕円形_22" data-name="楕円形 22" class="cls-4" cx="1.499" cy="1.499" r="1.499" transform="translate(34.512 27.984)"/>
    <circle id="楕円形_23" data-name="楕円形 23" class="cls-4" cx="1.499" cy="1.499" r="1.499" transform="translate(38.51 27.984)"/>
    <circle id="楕円形_24" data-name="楕円形 24" class="cls-4" cx="1.499" cy="1.499" r="1.499" transform="translate(42.508 27.984)"/>
    <rect id="長方形_103" data-name="長方形 103" class="cls-3" width="125.261" height="0.5" transform="translate(32.68 31.981)"/>
    <path id="パス_307" data-name="パス 307" class="cls-1" d="M1021.953,509.191c0,10.622-6.315,14.331-14.1,14.331s-14.1-3.709-14.1-14.331,14.1-24.136,14.1-24.136S1021.953,498.569,1021.953,509.191Z" transform="translate(-834.363 -408.008)"/>
    <path id="パス_308" data-name="パス 308" class="cls-2" d="M1010.069,499.4l.145-8.89,6.012-11-5.989,9.6.065-4,4.143-7.957-4.126,6.9h0l.117-7.189,4.436-6.335-4.418,5.2.073-13.183-.458,17.451.038-.72-4.511-6.9,4.438,8.287-.42,8.029-.012-.213-5.2-7.266,5.184,8.019-.052,1-.01.015,0,.083-1.066,20.371h1.425l.171-10.522,5.172-8Z" transform="translate(-837.097 -385.508)"/>
    <path id="パス_309" data-name="パス 309" class="cls-5" d="M135.3,768.7a7.171,7.171,0,0,1-1.362.583c-.846.231-1.75.146-2.6.344a1.072,1.072,0,0,0-.842.591,1.241,1.241,0,0,0,.092.77c.944,2.768,1.513,5.708,3.019,8.215a12.43,12.43,0,0,0,2.331,2.829,2.222,2.222,0,0,0,1.189.659,1.207,1.207,0,0,0,1.228-1.7c-.135-.3-.386-.532-.548-.819a3.123,3.123,0,0,1-.3-1.164,7.569,7.569,0,0,1,.118-3.542,11.9,11.9,0,0,1,1.2-2.073,3.619,3.619,0,0,0,.676-2.256,3.919,3.919,0,0,0-.608-1.508c-.28-.47-.834-1.734-1.4-1.891C136.908,767.577,135.812,768.437,135.3,768.7Z" transform="translate(-114.877 -643.588)"/>
    <path id="パス_310" data-name="パス 310" class="cls-5" d="M246.294,814.523a2.336,2.336,0,0,1-.11.791c-.176.465-.613.784-.839,1.227a2.711,2.711,0,0,0,.036,2.021,2.07,2.07,0,0,0,.652,1.1,2.146,2.146,0,0,0,.992.318,83.74,83.74,0,0,0,9.088.264,3.1,3.1,0,0,0,1.62-.235,1.021,1.021,0,0,0,.453-1.394c-.295-.4-.877-.4-1.373-.419a5.649,5.649,0,0,1-3.483-1.435,2.516,2.516,0,0,1-.489-.562,3.465,3.465,0,0,1-.256-.586,26.108,26.108,0,0,0-1.513-3.351,1.776,1.776,0,0,0-.651-.779,1.721,1.721,0,0,0-.706-.154c-.756-.049-2.712-.306-3.3.281C245.877,812.153,246.305,813.834,246.294,814.523Z" transform="translate(-210.472 -679.851)"/>
    <circle id="楕円形_25" data-name="楕円形 25" class="cls-6" cx="4.826" cy="4.826" r="4.826" transform="translate(35.645 57.924)"/>
    <path id="パス_311" data-name="パス 311" class="cls-6" d="M246.291,411.945a3.627,3.627,0,0,1-1.483,1.9l6.675,1.362a7.071,7.071,0,0,1-.094-2.976,1.716,1.716,0,0,0,.04-.734c-.126-.484-.671-.717-1.159-.829a15.479,15.479,0,0,1-3.428-.965A16.13,16.13,0,0,0,246.291,411.945Z" transform="translate(-210.178 -345.209)"/>
    <path id="パス_312" data-name="パス 312" class="cls-5" d="M214.221,421.4a5.22,5.22,0,0,1,4.55.119,10.3,10.3,0,0,1,2.261,1.8,3.61,3.61,0,0,1,1.372,2.218,6.216,6.216,0,0,1-.181,1.28,4.292,4.292,0,0,0,2.3,4.409,5.842,5.842,0,0,1,.648,2.984c.031,3.9-1.2,7.856-.322,11.659.206.893.527,1.758.705,2.657.231,1.164.22,2.362.34,3.543a15.866,15.866,0,0,0,.852,3.747,1.557,1.557,0,0,1-1.44.6,4.066,4.066,0,0,1-1.539-.522c-2.353-1.2-4.507-2.791-6.944-3.814-1.612-.677-3.329-1.1-4.893-1.88a6.408,6.408,0,0,1-3.5-3.7,8.671,8.671,0,0,1-.231-2.249,40.831,40.831,0,0,1,.6-9.51c.611-2.741,1.789-5.363,2.046-8.159a5.552,5.552,0,0,1,.594-2.644C212.158,422.869,213.71,422.591,214.221,421.4Z" transform="translate(-179.646 -354.572)"/>
    <path id="パス_313" data-name="パス 313" class="cls-5" d="M237.179,362.794a1.247,1.247,0,0,1,1.287-.312c.454.11.873.344,1.332.433a.779.779,0,0,0,.624-.088.907.907,0,0,0,.269-.595,11.353,11.353,0,0,0,.112-2.9.857.857,0,0,1,.026-.406c.114-.274.46-.339.743-.427a2.218,2.218,0,0,0,1.5-2.271.9.9,0,0,0-.276-.623,1.135,1.135,0,0,0-.722-.171q-1.946-.016-3.892,0a2.826,2.826,0,0,0-1.4.255,6.794,6.794,0,0,0-.813.685,7.972,7.972,0,0,1-2.572,1,2.55,2.55,0,0,0-1.127.672,1.188,1.188,0,0,0-.249,1.231,4.366,4.366,0,0,0,.314.484c.517.827.173,1.9.25,2.872a5.254,5.254,0,0,0,3.111,3.471C237.664,366.573,236.528,363.591,237.179,362.794Z" transform="translate(-199.452 -299.976)"/>
    <path id="パス_314" data-name="パス 314" class="cls-5" d="M242.368,676.838a14.4,14.4,0,0,1,.241,2.67c-.059,1.248-.51,2.451-.593,3.7-.062.931.082,1.872-.048,2.8-.083.592-.276,1.162-.4,1.748a7.228,7.228,0,0,0,1.162,5.541.909.909,0,0,0,.337.327.953.953,0,0,0,.418.055,29.955,29.955,0,0,0,4.193-.381.4.4,0,0,0,.269-.119.377.377,0,0,0,.058-.159c.257-1.322-.329-2.647-.478-3.986a12.372,12.372,0,0,1,.524-4.259,18.924,18.924,0,0,1,.578-2.037c.165-.449.363-.886.506-1.343a10.237,10.237,0,0,0,.367-2.2q.148-1.762.157-3.531a14.814,14.814,0,0,0-.277-3.333,17.765,17.765,0,0,0-1.588-3.953,2.5,2.5,0,0,0-.936.445,20.9,20.9,0,0,1-2.557,1.412c-.594.276-1.753.472-2.13,1.047s-.132,1.724-.1,2.35Q242.145,675.239,242.368,676.838Z" transform="translate(-207.366 -560.791)"/>
    <path id="パス_315" data-name="パス 315" class="cls-3" d="M242.368,676.838a14.4,14.4,0,0,1,.241,2.67c-.059,1.248-.51,2.451-.593,3.7-.062.931.082,1.872-.048,2.8-.083.592-.276,1.162-.4,1.748a7.228,7.228,0,0,0,1.162,5.541.909.909,0,0,0,.337.327.953.953,0,0,0,.418.055,29.955,29.955,0,0,0,4.193-.381.4.4,0,0,0,.269-.119.377.377,0,0,0,.058-.159c.257-1.322-.329-2.647-.478-3.986a12.372,12.372,0,0,1,.524-4.259,18.924,18.924,0,0,1,.578-2.037c.165-.449.363-.886.506-1.343a10.237,10.237,0,0,0,.367-2.2q.148-1.762.157-3.531a14.814,14.814,0,0,0-.277-3.333,17.765,17.765,0,0,0-1.588-3.953,2.5,2.5,0,0,0-.936.445,20.9,20.9,0,0,1-2.557,1.412c-.594.276-1.753.472-2.13,1.047s-.132,1.724-.1,2.35Q242.145,675.239,242.368,676.838Z" transform="translate(-207.366 -560.791)"/>
    <path id="パス_316" data-name="パス 316" class="cls-5" d="M176.156,605.518c-.641,1.726.3,3.59,1.12,5.239a91.6,91.6,0,0,1,4.81,12.712,1.558,1.558,0,0,1,.092,1,1.3,1.3,0,0,1-.47.558,11.1,11.1,0,0,1-3.327,1.371,15.019,15.019,0,0,0-3.155,1.479c-.829.514-1.606,1.107-2.381,1.7l-2.467,1.884a1.65,1.65,0,0,0-.412.4,1.612,1.612,0,0,0-.022,1.287,21.887,21.887,0,0,0,1.208,3.3,1.151,1.151,0,0,0,.438.574c.385.207.856-.068,1.15-.391s.548-.726.963-.865.87.029,1.3-.031c.7-.1,1.164-.742,1.668-1.237,2.06-2.021,5.5-1.874,7.764-3.661a9.84,9.84,0,0,1,1.038-.811c.383-.226.817-.351,1.215-.551a5.151,5.151,0,0,0,2.376-3.158c.407-1.291.523-2.653.816-3.974a17.285,17.285,0,0,0,.418-2.055,11.005,11.005,0,0,0-.042-1.943l-.818-10.113c-.067-.824-.133-1.648-.262-2.464-2.428.087-4.854.185-7.284.213A17.375,17.375,0,0,1,176.156,605.518Z" transform="translate(-147.679 -508.404)"/>
    <path id="パス_317" data-name="パス 317" class="cls-5" d="M201.333,599.874a1.3,1.3,0,0,0,1.683.228c.552-.29.981-.778,1.534-1.066a4.985,4.985,0,0,1,2.461-.349,16,16,0,0,1,3.946.441c1.32.376,2.605,1.1,3.97.956a.817.817,0,0,0,.626-.294.924.924,0,0,0,.1-.473l.045-1.192a1.077,1.077,0,0,0-.1-.6,1.013,1.013,0,0,0-.452-.346,15.615,15.615,0,0,0-6.316-1.19q-1.645-.056-3.291-.046a11.986,11.986,0,0,0-2.955.12C201.377,596.393,200.716,598.883,201.333,599.874Z" transform="translate(-173.748 -500.395)"/>
    <path id="パス_318" data-name="パス 318" class="cls-4" d="M212.181,423.478c-2.546-.023-4.852-1.7-7.4-1.744a1.919,1.919,0,0,0-.9.155,3.345,3.345,0,0,0-.857.816c-.753.815-1.843,1.25-2.616,2.046a3.034,3.034,0,0,0-.842,2.857,2.123,2.123,0,0,0,2.378,1.527,6.13,6.13,0,0,1,2.388-3.245,12.144,12.144,0,0,1,1.866-.98,5.167,5.167,0,0,1,3.618-.658,5.1,5.1,0,0,1,1.234.673l1.991,1.338A13.861,13.861,0,0,0,212.181,423.478Z" transform="translate(-172.397 -355.23)"/>
    <path id="パス_319" data-name="パス 319" class="cls-4" d="M194.831,438.615c-.338.422.149,1.033.074,1.568-.049.356-.342.627-.464.965a5.173,5.173,0,0,0-.107,1.106,4.746,4.746,0,0,1-.212.788,14.154,14.154,0,0,0-.447,2.336l-.446,3.327a12.6,12.6,0,0,0-.141,1.512,4.516,4.516,0,0,1-.075,1.13,8.347,8.347,0,0,1-.464,1.029,1.206,1.206,0,0,0-.017,1.087,1.9,1.9,0,0,0-.4,2.371,1.316,1.316,0,0,1,.2.377.97.97,0,0,1-.09.556l-.451,1.2c-.115.307-.152.775.169.845a2.834,2.834,0,0,0-.608.961,1.144,1.144,0,0,0,.162,1.084,1.379,1.379,0,0,1,.282.343.911.911,0,0,1-.033.54,1.983,1.983,0,0,0,.245,1.555,1.394,1.394,0,0,0,1.4.6,6.408,6.408,0,0,1,2.62-.357,46.794,46.794,0,0,1,5.814,1.325c2.163.69,4.257,1.7,6.517,1.916a.632.632,0,0,0,.436-.068.655.655,0,0,0,.2-.414l.7-3.276a33.7,33.7,0,0,0,.642-3.669c.08-.8.1-1.6.125-2.4l.18-6.368a6.362,6.362,0,0,0-.366-2.768l-1.036-3.306c-.591-1.887-1.947-3.56-2.43-5.477a8.1,8.1,0,0,0-1.35-3.461c-1.168-1.348-3.189-1.558-4.958-1.326a5.922,5.922,0,0,0-2.3.7,7.524,7.524,0,0,0-1.958,1.972C195.789,437.527,195.311,438.016,194.831,438.615Z" transform="translate(-165.573 -365.595)"/>
    <path id="パス_320" data-name="パス 320" class="cls-6" d="M236.521,552.655c.146.628.452,1.208.639,1.825.314,1.034.287,2.148.6,3.182.131.434.322.851.416,1.295a5.365,5.365,0,0,1-.5,3.084,12.05,12.05,0,0,0-1.015,2.995,2.294,2.294,0,0,0,.61,2.054,3,3,0,0,0,2.222.4,2.329,2.329,0,0,0,.806-.168,2.177,2.177,0,0,0,.975-1.613,23.942,23.942,0,0,0,.2-6.529l-.351-5.7a13.344,13.344,0,0,0-.478-3.272,3.12,3.12,0,0,0-.688-1.4,4.627,4.627,0,0,0-1.767-.274C236.172,548.432,236.194,551.245,236.521,552.655Z" transform="translate(-203.133 -460.905)"/>
    <path id="パス_321" data-name="パス 321" class="cls-5" d="M230.568,446.318a1.387,1.387,0,0,0-1.328.117,4.091,4.091,0,0,0-.995.966c-.889,1.085-1.831,2.331-1.7,3.728a9.458,9.458,0,0,0,.386,1.528c.6,2.229-.063,4.586.013,6.891a21.577,21.577,0,0,0,.622,3.944c.059.266.153.573.41.663a.891.891,0,0,0,.592-.092,4.726,4.726,0,0,1,4.325.545c.477-.255.3-1.06.191-1.59a9.139,9.139,0,0,1,.638-4.72,17.386,17.386,0,0,0,1.238-4.641,14.181,14.181,0,0,0-1.1-5.314,1.709,1.709,0,0,0-1.439-1.425A9.925,9.925,0,0,1,230.568,446.318Z" transform="translate(-194.947 -375.622)"/>
  </g>
</svg>
