<svg xmlns="http://www.w3.org/2000/svg" xmlns:xlink="http://www.w3.org/1999/xlink" width="539" height="286.842" viewBox="0 0 539 286.842">
  <defs>
    <style>
      .cls-1, .cls-3 {
        fill: #6c63ff;
      }

      .cls-1, .cls-2, .cls-7 {
        opacity: 0.1;
      }

      .cls-4 {
        fill: #3f3d56;
      }

      .cls-5 {
        fill: #65617d;
      }

      .cls-6 {
        opacity: 0.2;
      }

      .cls-8 {
        fill: #d4dfec;
      }

      .cls-9 {
        fill: #fbbebe;
      }

      .cls-10 {
        fill: url(#linear-gradient);
      }

      .cls-11 {
        fill: none;
        stroke: #6c63ff;
        stroke-miterlimit: 10;
        stroke-width: 2px;
      }
    </style>
    <linearGradient id="linear-gradient" x1="0.5" y1="1" x2="0.5" y2="-0.001" gradientUnits="objectBoundingBox">
      <stop offset="0" stop-color="gray" stop-opacity="0.251"/>
      <stop offset="0.54" stop-color="gray" stop-opacity="0.122"/>
      <stop offset="1" stop-color="gray" stop-opacity="0.102"/>
    </linearGradient>
  </defs>
  <g id="グループ化_28" data-name="グループ化 28" transform="translate(-0.011 -0.035)">
    <path id="パス_214" data-name="パス 214" class="cls-1" d="M577.04,399.759q-.9,1.941-1.8,3.83-1.4,2.935-2.759,5.756c-.4.833-.807,1.651-1.2,2.469-4.452,9.095-8.608,17.139-12.139,23.754a37.9,37.9,0,0,1-33.03,20.032l-78.5.854h-.828l-6.729.072-5.756.062-17.651.192h-.714l-8.986.1h-.274l-55.387.6L301.85,458l-5.751.062-35.717.388h-.041l-23.164.248h-.248l-73.245.792-21.911.238a45.588,45.588,0,0,1-13.805-1.977,44.718,44.718,0,0,1-20.234-12.811,103.5,103.5,0,0,1-20.876-35.593q-1-2.842-1.863-5.756c-15.948-53.912,3.494-123.466,38.486-170.012q2.2-2.92,4.472-5.694l.036-.041c10.762-13.21,22.828-24.246,35.681-32.093,22.776-13.93,48.011-17.853,72.831-6.16,21,9.9,40.608,14.551,59.616,15.814,1.92.124,3.841.217,5.751.274,43.6,1.372,84.462-14.338,132.447-24.479,1.91-.4,3.825-.8,5.756-1.18,34.231-6.812,72.2-10.4,117.363-2.852a97.874,97.874,0,0,1,13.852,3.313q2.987.963,5.756,2.071c21.554,8.769,33.31,24.971,38.3,45.272q.709,2.826,1.227,5.751C625.428,282.406,599.489,351.676,577.04,399.759Z" transform="translate(-79.34 -172.91)"/>
    <g id="グループ化_26" data-name="グループ化 26" class="cls-2" transform="translate(5.653 7.093)">
      <path id="パス_215" data-name="パス 215" class="cls-3" d="M208.957,217V480.8l-21.911.238a45.587,45.587,0,0,1-13.805-1.977V249.093h.036C184.038,235.868,196.1,224.832,208.957,217Z" transform="translate(-130.282 -201.254)"/>
      <path id="パス_216" data-name="パス 216" class="cls-3" d="M657.719,284.735H164.6q2.2-2.919,4.472-5.694V279H656.492Q657.2,281.811,657.719,284.735Z" transform="translate(-126.114 -231.16)"/>
      <path id="パス_217" data-name="パス 217" class="cls-3" d="M1035.456,189.561v221.03h-1.8q-1.4,2.935-2.759,5.756c-.4.833-.808,1.651-1.2,2.469V187.47Q1032.687,188.433,1035.456,189.561Z" transform="translate(-543.409 -187.009)"/>
      <path id="パス_218" data-name="パス 218" class="cls-3" d="M770.846,186.58V463.126l-5.756.062V187.76C767,187.356,768.915,186.958,770.846,186.58Z" transform="translate(-415.77 -186.58)"/>
      <path id="パス_219" data-name="パス 219" class="cls-3" d="M503.861,235.894V488.282l-5.751.062V235.62C500.031,235.744,501.951,235.817,503.861,235.894Z" transform="translate(-286.988 -210.235)"/>
      <path id="パス_220" data-name="パス 220" class="cls-3" d="M580.5,618.52q-1.4,2.935-2.759,5.756H92.113q-1-2.842-1.863-5.756Z" transform="translate(-90.25 -394.933)"/>
    </g>
    <rect id="長方形_48" data-name="長方形 48" class="cls-4" width="9.835" height="29.847" transform="translate(109.536 137.619)"/>
    <rect id="長方形_49" data-name="長方形 49" class="cls-4" width="9.835" height="31.576" transform="translate(374.218 136.067)"/>
    <path id="パス_221" data-name="パス 221" class="cls-5" d="M497.949,519.9v6.729l-78.639.725-.839.015-29.888.274-.714.01-9.085.078h-.269l-55.376.512-90.9.844h-.078l-23.112.217-.248.005-102.7.942v-7.764L130.248,508l48.451-.4,1.035-.005.342-.005,1.035-.016,23.262-.192,1.04-.005.331-.005,1.035-.005,7.459-.062.2-.005,18.4-.155h.15l143.592-1.211,3.515-.026h.352l2.681-.026,19.489-.16,1.035-.016.958-.01h.5l6.061-.047,1.2-.016,1.61-.01,5.047-.047,8.008-.067,1.035-.01,1.8-.01h.336l38.672-.331Z" transform="translate(-51.174 -243.65)"/>
    <path id="パス_222" data-name="パス 222" class="cls-6" d="M497.949,519.9v6.729l-78.639.725-.839.015-29.888.274-.714.01-9.085.078h-.269l-55.376.512-90.9.844h-.078l-23.112.217-.248.005-102.7.942v-7.764L130.248,508l48.451-.4,1.035-.005.342-.005,1.035-.016,23.262-.192,1.04-.005.331-.005,1.035-.005,7.459-.062.2-.005,18.4-.155h.15l143.592-1.211,3.515-.026h.352l2.681-.026,19.489-.16,1.035-.016.958-.01h.5l6.061-.047,1.2-.016,1.61-.01,5.047-.047,8.008-.067,1.035-.01,1.8-.01h.336l38.672-.331Z" transform="translate(-51.174 -243.65)"/>
    <path id="パス_223" data-name="パス 223" class="cls-4" d="M352.687,656.57v12.677a3.173,3.173,0,0,1-1.812,2.868,3.1,3.1,0,0,1-1.294.311l-18.065.383a3.107,3.107,0,0,1-1.4-.3,3.168,3.168,0,0,1-1.848-2.883V656.57Z" transform="translate(-199.41 -406.194)"/>
    <path id="パス_224" data-name="パス 224" class="cls-7" d="M352.687,656.57v12.677a3.173,3.173,0,0,1-1.812,2.868,3.1,3.1,0,0,1-1.294.311l-18.065.383a3.107,3.107,0,0,1-1.4-.3,3.168,3.168,0,0,1-1.848-2.883V656.57Z" transform="translate(-199.41 -406.194)"/>
    <path id="パス_225" data-name="パス 225" class="cls-4" d="M354.687,656.57v12.677a3.173,3.173,0,0,1-1.812,2.868,3.1,3.1,0,0,1-1.294.311l-18.065.383a3.107,3.107,0,0,1-1.4-.3,3.168,3.168,0,0,1-1.848-2.883V656.57Z" transform="translate(-200.375 -406.194)"/>
    <rect id="長方形_50" data-name="長方形 50" class="cls-4" width="24.417" height="16.305" transform="translate(352.478 250.376)"/>
    <rect id="長方形_51" data-name="長方形 51" class="cls-7" width="24.417" height="16.305" transform="translate(352.478 250.376)"/>
    <rect id="長方形_52" data-name="長方形 52" class="cls-4" width="24.417" height="16.305" transform="translate(351.442 250.376)"/>
    <path id="パス_226" data-name="パス 226" class="cls-7" d="M221.435,265.82v2.966l-9.835-.254V265.82Z" transform="translate(-102.064 -128.206)"/>
    <path id="パス_227" data-name="パス 227" class="cls-5" d="M330,268.96l-11.818,84.892a2.226,2.226,0,0,1-2.262,1.92L221.3,353.319l-1.8-.047a2.226,2.226,0,0,1-2.153-2.521l13.267-88.867a2.226,2.226,0,0,1,2.35-1.879l94.965,6.429A2.221,2.221,0,0,1,330,268.96Z" transform="translate(-145.897 -214.902)"/>
    <path id="パス_228" data-name="パス 228" class="cls-3" d="M166.606,99.16,156.6,177.494l86.962,2.759,10.694-75.575Z" transform="translate(-75.533 -47.815)"/>
    <rect id="長方形_53" data-name="長方形 53" class="cls-5" width="105.944" height="89.721" rx="5.33" transform="translate(199.087 50.134)"/>
    <rect id="長方形_54" data-name="長方形 54" class="cls-3" width="96.28" height="74.71" transform="translate(204.087 56.175)"/>
    <path id="パス_229" data-name="パス 229" class="cls-7" d="M732.765,262.82v1.962l-9.835.2V262.82Z" transform="translate(-348.712 -126.759)"/>
    <path id="パス_230" data-name="パス 230" class="cls-5" d="M805.976,347.81a1.594,1.594,0,0,1-1.553,1.7l-96.9,2a1.594,1.594,0,0,1-1.62-1.444l-8.329-86.59a1.594,1.594,0,0,1,1.511-1.744l96.166-4.783,1.035-.052a1.589,1.589,0,0,1,1.667,1.449Z" transform="translate(-377.546 -213.405)"/>
    <path id="パス_231" data-name="パス 231" class="cls-3" d="M628.93,99.137l87.827-4.317,7.418,78.68-87.133,2.071Z" transform="translate(-303.369 -45.721)"/>
    <path id="パス_232" data-name="パス 232" class="cls-7" d="M897.005,347.81a1.594,1.594,0,0,1-1.553,1.7L886.28,256.95l1.035-.052a1.589,1.589,0,0,1,1.667,1.449Z" transform="translate(-468.576 -213.405)"/>
    <path id="パス_233" data-name="パス 233" class="cls-7" d="M232.984,259.994,221.3,353.313l-1.8-.047a2.226,2.226,0,0,1-2.153-2.521l13.267-88.867A2.226,2.226,0,0,1,232.984,259.994Z" transform="translate(-145.897 -214.897)"/>
    <rect id="長方形_55" data-name="長方形 55" class="cls-7" width="9.835" height="8.841" transform="translate(109.536 158.625)"/>
    <path id="パス_234" data-name="パス 234" class="cls-7" d="M275.347,483.65v2.573l-24.417.652V483.65Z" transform="translate(-121.035 -233.28)"/>
    <path id="パス_235" data-name="パス 235" class="cls-5" d="M364.458,483.365v87.066a2.071,2.071,0,0,1-1.993,2.045l-99.2,2.64h-.026a2.07,2.07,0,0,1-2.045-2.045V483.365a2.071,2.071,0,0,1,2.045-2.045h99.179A2.071,2.071,0,0,1,364.458,483.365Z" transform="translate(-167.053 -321.66)"/>
    <path id="パス_236" data-name="パス 236" class="cls-7" d="M263.261,481.32v93.8h-.026a2.07,2.07,0,0,1-2.045-2.045V483.365a2.071,2.071,0,0,1,2.045-2.045Z" transform="translate(-167.053 -321.66)"/>
    <path id="パス_237" data-name="パス 237" class="cls-8" d="M194.6,319.15h91.88v76.739L194.6,397.96Z" transform="translate(-93.863 -153.93)"/>
    <rect id="長方形_56" data-name="長方形 56" class="cls-7" width="9.835" height="9.017" transform="translate(374.218 158.625)"/>
    <path id="パス_238" data-name="パス 238" class="cls-7" d="M703.347,483.65v3.318l-24.417-.652V483.65Z" transform="translate(-327.488 -233.28)"/>
    <path id="パス_239" data-name="パス 239" class="cls-5" d="M771.439,483.365v89.706a2.071,2.071,0,0,1-2.071,2.045h0l-99.225-2.64a2.071,2.071,0,0,1-1.993-2.045V483.365a2.071,2.071,0,0,1,2.045-2.045h99.179A2.071,2.071,0,0,1,771.439,483.365Z" transform="translate(-363.357 -321.66)"/>
    <path id="パス_240" data-name="パス 240" class="cls-7" d="M865.76,483.365v89.706a2.071,2.071,0,0,1-2.071,2.045h0v-93.8h0a2.071,2.071,0,0,1,2.071,2.045Z" transform="translate(-457.679 -321.66)"/>
    <path id="パス_241" data-name="パス 241" class="cls-8" d="M689.98,319.15H598.1v76.739l91.88,2.071Z" transform="translate(-288.498 -153.93)"/>
    <path id="パス_242" data-name="パス 242" class="cls-5" d="M566.958,483.365v87.066a2.07,2.07,0,0,1-1.993,2.045l-99.2,2.64h0a2.071,2.071,0,0,1-2.07-2.045V483.365a2.071,2.071,0,0,1,2.045-2.045h99.179A2.071,2.071,0,0,1,566.958,483.365Z" transform="translate(-264.732 -321.66)"/>
    <path id="パス_243" data-name="パス 243" class="cls-8" d="M397.1,319.15h91.88v76.739L397.1,397.96Z" transform="translate(-191.542 -153.93)"/>
    <path id="パス_244" data-name="パス 244" class="cls-7" d="M497.949,533.65v6.729l-78.639.725-.839.016-29.888.274-.714.01-9.085.078h-.269l-55.376.512-90.9.844h-.078l-23.112.217-.248.005L106.1,544v-7.765l104.826-.689h.248l21.218-.145h.1l146.532-.968h.15l.088-.005h.243l2.479-.015h.756l38.559-.259,2.278-.01.507-.005Z" transform="translate(-51.174 -257.398)"/>
    <circle id="楕円形_11" data-name="楕円形 11" class="cls-9" cx="26.57" cy="26.57" r="26.57" transform="translate(225.657 114.326)"/>
    <path id="パス_245" data-name="パス 245" class="cls-10" d="M383.74,543.187a.64.64,0,0,1,.052-.181c.518-1.858,1.439-5,2.127-7.511.088-.311.171-.616.248-.906.761-2.831,2.241-9.462,3.064-13.6.29-1.455.518-2.588.564-3.158a86.179,86.179,0,0,1,3.427-8.919c1.237-3.023,2.588-6.326,3.577-9.11a31.774,31.774,0,0,0,1.517-5.1,2.641,2.641,0,0,0,0-1.1,7.6,7.6,0,0,1-.249-1.812h0c-.119-3.209.839-8.282,2.319-10.41,1.812-2.588,3.106-12.247,3.106-12.247s2.681.388,3.106-1.827a3.186,3.186,0,0,0,.052-.725,3.842,3.842,0,0,0-.047-.575c-.461-3.23,7.62-6.667,12.164-7.407a10.178,10.178,0,0,1,1.553-.145,14.1,14.1,0,0,0,3.235-.745q.725-.223,1.553-.518c1.9-.642,4.182-1.491,6.6-2.422,9.09-3.525,20.095-8.282,20.095-8.282.078-.368.166-.72.264-1.066a14.344,14.344,0,0,1,8.463-9.8h0v-1.035c0-1.786-.078-3.623-.155-5.456,0-.357-.031-.714-.052-1.071v-.585c0-.362-.036-.725-.057-1.082l-.093-.072a8.494,8.494,0,0,1-2.019-2.174,7.9,7.9,0,0,1-.735-1.553,47.426,47.426,0,0,1-1.232-5.565l-.093-.383a43.486,43.486,0,0,0-2.071-5.477c-1.144-2.806-2.024-5.694-2.9-8.619q-.8-2.655-1.61-5.321l-.818-2.712c-.155-.518-.311-1.035-.43-1.553h0a6.869,6.869,0,0,1-.135-.725,5.176,5.176,0,0,1,.124-2.386,16.629,16.629,0,0,1,.683-1.553,4.078,4.078,0,0,0,.259-.714h0a1.564,1.564,0,0,0,.041-.166,2.927,2.927,0,0,0,.057-.559,9.558,9.558,0,0,0-.269-2.014.037.037,0,0,1,0-.026,1.325,1.325,0,0,0-.026-.14,13.2,13.2,0,0,1-.186-1.553,14.727,14.727,0,0,1,1.8-8.06l.1-.186a13.069,13.069,0,0,1,.952-1.439h0a7.263,7.263,0,0,1,.518-.632,2.067,2.067,0,0,1-2.873-.745,1.968,1.968,0,0,1-.119-.233c-.026-.062-.047-.129-.067-.2a4.229,4.229,0,0,1,1.1-3.649,9.57,9.57,0,0,1,2.971-2.433h0a1.984,1.984,0,0,1,.207-.109,8.861,8.861,0,0,1,1.366-.549h0a7.791,7.791,0,0,1,.844-.228l-1.92-.176-.776-.072a7.5,7.5,0,0,1,6.729-5.647h.559a6.068,6.068,0,0,1,.813.067,2.3,2.3,0,0,1-1.372-2.241,7.458,7.458,0,0,0,4.757,1.584h.2a15.5,15.5,0,0,1-.176-1.693h0a17.172,17.172,0,0,1,0-2.309,4.369,4.369,0,0,0,3.51,1.17l-1.077-1.5a4.912,4.912,0,0,0,3.4,1.061l.248-.026a3.624,3.624,0,0,0,.616-.119h.047c-.1-.124-.186-.254-.274-.388l-.031-.062a5.005,5.005,0,0,1-.518-1.082,3.412,3.412,0,0,1-.124-.45h0a4.529,4.529,0,0,1,.233-2.821c1.672,1.4,3.5,3.308,5.694,1.863s2.262-4.094,5.694-3.825a5.28,5.28,0,0,1,4.353,3.168,3.494,3.494,0,0,1,3.97-.906,3.546,3.546,0,0,1,2.008,3.567,7.153,7.153,0,0,1,4.322-.171c1.367.538,2.247,2.283,1.47,3.447a.748.748,0,0,1-.073.1c-.637.823-2.045,1.273-1.895,2.309l.217.155.673.487q3.96,2.857,7.713,6c1.284,1.077,2.65,2.371,2.738,4.053a4.47,4.47,0,0,1-.124,1.227h0c-.083.4-.2.807-.285,1.211a10.1,10.1,0,0,0-.176,3.132h0c.036.305.083.606.14.911.792,4,3.991,7.3,4.307,11.388v.29a9.181,9.181,0,0,1-.036,1.31c-.238,2.485-1.387,4.871-2.319,7.247-.057.145-.114.29-.166.435a72.109,72.109,0,0,0-3.623,14.577,51.9,51.9,0,0,1-1.035,5.223,13.835,13.835,0,0,1-2.635,5.4,8.393,8.393,0,0,1-1.739,1.553,9.66,9.66,0,0,1-1.372.73v.031c.057.316.1.632.16.947.031.166.057.331.088.518h0a.072.072,0,0,0,0,.031c.435,2.448.932,4.845,1.455,7.123l.264,1.134c6.522,2.355,7.294,7.18,7.34,9.027a4.994,4.994,0,0,1,0,.74s9.835.259,13.717,3.106a10.523,10.523,0,0,0,2.335,1.191,42.941,42.941,0,0,0,4.788,1.5c.833.217,1.7.43,2.588.637,1.553.357,3.2.7,4.788,1.035,4.239.854,8.23,1.553,10.254,2.071,4.83,1.222,15.876,11.812,15.876,11.812s1.294,10.684,2.588,12.242,3.623,7.035,3.623,7.035l8.562,15.224,3.624,6.4h2.329a3.961,3.961,0,0,1,1.662,1.087c.616.549,1.3,1.232,1.9,1.853l.994,1.061.621.688s3.763.093,4.783,3.07c3.065-.088,6.828.114,9.462,1.294a7.329,7.329,0,0,1,1.035.559,4.493,4.493,0,0,1,2.138,2.93,4.34,4.34,0,0,1,.093.745c0,.3,0,.59,0,.88-.186,3.918-2.738,7.18-5.083,9.374l.166.295s-.078.186-.228.518c-.041.1-.093.207-.15.331h0c-.305.652-.792,1.631-1.429,2.774a32.769,32.769,0,0,1-4.954,6.817l-.15.155-29.888.274-.088-.1-5.8-6.916-2.883-3.437-.088-.109-.083.823-.28,2.743-.673,6.631-.036.331v.088l-.078.766.057-.766h-.15l-55.387.518-90.907,1v.435h-.073v-.435l-23.164.248Z" transform="translate(-226.167 -257.343)"/>
    <path id="パス_246" data-name="パス 246" class="cls-9" d="M574.219,497s-51.5,6.212-46.587,0c1.781-2.247,2.272-8.9,2.174-16.487-.031-2.3-.114-4.69-.233-7.066-.569-11.388-1.941-22.517-1.941-22.517s45.034-21.223,39.858-4.4c-2.07,6.8-1.392,16.342.181,25.3.461,2.614.994,5.176,1.553,7.609a178.453,178.453,0,0,0,5,17.558Z" transform="translate(-295.416 -301.749)"/>
    <path id="パス_247" data-name="パス 247" class="cls-7" d="M574.219,532.562s-51.5,6.212-46.587,0c1.781-2.247,2.272-8.9,2.174-16.487,7.852-3.354,17.843-.854,17.843-.854,10.518-2.1,17.263-1.687,21.575-.217a178.467,178.467,0,0,0,5,17.558Z" transform="translate(-295.416 -337.315)"/>
    <path id="パス_248" data-name="パス 248" class="cls-3" d="M407.417,624.288v-.435l90.907-.989,55.387-.518h.155l-.057.766.078-.766h.1v-.088l.709-6.962.269-2.635.083-.823.073-.689,3.2-10.668,3.2-10.653,2.692-8.971,4.11-13.707s-2.329-5.435-3.623-6.988S562.107,548,562.107,548s-11.046-10.524-15.876-11.735c-2.024-.518-6.02-1.206-10.265-2.071-1.589-.321-3.22-.663-4.788-1.035-.885-.2-1.755-.414-2.588-.626a45.509,45.509,0,0,1-4.788-1.48,10.717,10.717,0,0,1-2.329-1.185c-3.8-2.79-13.339-3.106-13.707-3.106h0a.212.212,0,0,1,0-.036v-.047a5.309,5.309,0,0,0,0-.652,4.15,4.15,0,0,0-.047-.725.653.653,0,0,0-.036-.259c-.026-.186-.057-.383-.1-.59a2.59,2.59,0,0,0-.062-.274,8.909,8.909,0,0,0-.647-1.807c-.036-.083-.083-.171-.124-.254a9.435,9.435,0,0,0-.88-1.361c-.067-.088-.14-.181-.217-.269a10.139,10.139,0,0,0-1.408-1.367c-.14-.109-.285-.222-.435-.326a2.417,2.417,0,0,0-.264-.186l-.461-.3-.43-.248c-.378-.207-.776-.409-1.211-.6-.135-.062-.28-.119-.424-.176s-.373-.145-.564-.217h-.031l-.388-.155c-.295-.1-.6-.186-.911-.274l-.481-.124-.518-.119-.518-.109c-.518-.1-1.071-.2-1.651-.269l-.59-.073-.606-.062-.626-.052-.89-.052-1.035-.036a64.552,64.552,0,0,0-13.589,1.445,37.414,37.414,0,0,0-9.446-.871h-.45l-.518.031h-.331l-.668.062a4.953,4.953,0,0,0-.673.078c-.223.031-.455.057-.678.093l-.342.057c-.336.057-.678.119-1.035.192q-.171.031-.342.078c-.45.1-.9.217-1.346.352-.223.062-.445.135-.668.212-.114.031-.223.073-.331.114l-.331.119-.326.129-.388.155c-.2.083-.388.171-.58.264-.109.047-.217.1-.321.155s-.212.1-.311.16a14.367,14.367,0,0,0-3.214,2.267l-.264.254-.259.264c-.088.088-.171.181-.254.274a12.321,12.321,0,0,0-.942,1.165c-.083.109-.16.218-.238.331a13.813,13.813,0,0,0-.89,1.511c-.067.124-.129.254-.192.378a16.924,16.924,0,0,0-1.035,2.718q-.145.518-.264,1.035s-10.958,4.835-20.048,8.334c-2.417.932-4.7,1.775-6.6,2.412-.554.186-1.071.357-1.553.518a13.824,13.824,0,0,1-3.235.745,10.175,10.175,0,0,0-1.553.145c-4.177.678-11.336,3.624-12.118,6.579a1.909,1.909,0,0,0-.052.725v.057c.518,3.623-3.106,3.106-3.106,3.106s-1.294,9.576-3.106,12.164c-1.31,1.863-2.205,6.02-2.319,9.157h0a10.149,10.149,0,0,0,.228,2.914v.072c.207.694-.29,2.588-1.134,5.016-.916,2.666-2.252,5.979-3.535,9.105-1.936,4.721-3.758,9.007-3.872,9.949-.047.419-.181,1.17-.367,2.138-.756,3.944-2.433,11.455-3.261,14.494-.616,2.267-1.511,5.373-2.128,7.506a.725.725,0,0,1-.052.181l23.206-.228v.435h.073Z" transform="translate(-226.374 -338.263)"/>
    <path id="パス_249" data-name="パス 249" class="cls-7" d="M445.44,607.57s29.505,15.27,40.117,13.458Z" transform="translate(-255.929 -382.558)"/>
    <path id="パス_250" data-name="パス 250" class="cls-7" d="M561.44,595.57s28.729,9.317,38.3,10.611S561.44,595.57,561.44,595.57Z" transform="translate(-311.884 -376.77)"/>
    <path id="パス_251" data-name="パス 251" class="cls-7" d="M571.29,528.062c-15.011,2.764-43.274,2.169-55.49,1.75,4.478-16.047,26.311-10.591,26.311-10.591C569.137,513.827,571.208,525.018,571.29,528.062Z" transform="translate(-289.868 -339.243)"/>
    <path id="パス_252" data-name="パス 252" class="cls-3" d="M571.29,526.062c-15.011,2.764-43.274,2.169-55.49,1.75,4.478-16.047,26.311-10.591,26.311-10.591C569.137,511.827,571.208,523.018,571.29,526.062Z" transform="translate(-289.868 -338.279)"/>
    <path id="パス_253" data-name="パス 253" class="cls-9" d="M776.94,671.891s17.682-2.718,18.029,5.047-9.017,13.189-9.017,13.189Z" transform="translate(-415.833 -413.362)"/>
    <path id="パス_254" data-name="パス 254" class="cls-7" d="M567.95,471.829a24.329,24.329,0,0,1-2.329.9c-5.58,1.926-11.207,3.867-17.082,4.571s-12.04.083-17.165-2.847a14.862,14.862,0,0,1-1.553-1.009c-.57-11.388-1.941-22.517-1.941-22.517s45.034-21.223,39.858-4.4C565.678,453.323,566.376,462.869,567.95,471.829Z" transform="translate(-295.695 -301.749)"/>
    <path id="パス_255" data-name="パス 255" class="cls-4" d="M531.007,358.575a4.9,4.9,0,0,1-4.307-.906l1.077,1.5a4.384,4.384,0,0,1-3.51-1.165,17.64,17.64,0,0,0,.166,4.012,7.516,7.516,0,0,1-4.949-1.553,2.288,2.288,0,0,0,1.367,2.231,7.423,7.423,0,0,0-8.075,5.544l2.7.248a9.56,9.56,0,0,0-5.4,3.3,4.187,4.187,0,0,0-1.1,3.623c.362,1.263,2.112,2.071,3.064,1.17a14.463,14.463,0,0,0-3.158,11.8,7.491,7.491,0,0,1,.238,2.723,23.108,23.108,0,0,1-.978,2.428c-.518,1.512-.026,3.152.435,4.659l2.428,7.982c.88,2.883,1.755,5.772,2.9,8.562a42.465,42.465,0,0,1,2.07,5.44c.652,2.505.678,5.249,2.071,7.438a10.317,10.317,0,0,0,3.716,3.277c5.12,2.93,11.305,3.551,17.165,2.847s11.481-2.645,17.056-4.571a16.048,16.048,0,0,0,3.541-1.553c3.856-2.526,4.716-7.692,5.435-12.242a69.515,69.515,0,0,1,3.773-14.908c1.128-2.842,2.588-5.725,2.34-8.769-.316-4.043-3.515-7.319-4.307-11.295a9.836,9.836,0,0,1,.036-4.022,9.136,9.136,0,0,0,.409-2.433c-.088-1.667-1.455-2.951-2.738-4.022q-4.177-3.489-8.624-6.595c-.15-1.035,1.258-1.48,1.894-2.3.9-1.154-.031-2.987-1.4-3.525a7.153,7.153,0,0,0-4.322.171,3.411,3.411,0,0,0-5.979-2.645,5.28,5.28,0,0,0-4.358-3.147c-3.432-.269-3.5,2.355-5.694,3.8s-4.006-.461-5.694-1.848A4.8,4.8,0,0,0,531.007,358.575Z" transform="translate(-286.068 -259.209)"/>
    <path id="パス_256" data-name="パス 256" class="cls-3" d="M755.321,656.621s-.461,1.1-1.31,2.687a35.719,35.719,0,0,1-4.659,6.817l-.14.15h-.839l-29.888.274h-.714l-.088-.1-5.8-6.879-2.184-2.593-.088-.109-.186-.217-.1-.124-.135-.16-4.25-5.042,1.553-6.47,2.645-10.9.067-.264.518-2.071.367-1.553L711.322,625l4.224-17.418,7.506,3.882,7.915,13.976,4.25,7.506h2.329c.44,0,1.449.849,2.464,1.827.362.347.725.714,1.035,1.035.921.952,1.651,1.77,1.651,1.77s3.773.083,4.788,3.054a3.608,3.608,0,0,1,.129.44,20.87,20.87,0,0,0,1.31,3.4c.668,1.455,1.506,3.106,2.355,4.757,1.579,3.028,3.183,5.911,3.774,6.957l.072.129Z" transform="translate(-381.103 -382.563)"/>
    <path id="パス_257" data-name="パス 257" class="cls-7" d="M577.738,651.556l-.052.74v.052l-.088,1.191-.688,9.581-.833,11.543-.238,3.251-.518,6.957v.088l-55.387.518-90.891.983v.435h-.072v-.58l.233-7.433.445-14.525.383-12.315.036-1.227a5.451,5.451,0,0,1,5.911-5.264c2.443.207,5.616.461,9.411.73l1.553.114c21.911,1.522,62.406,3.489,103.268,1.035.859-.047,1.724-.1,2.588-.16,6.336-.4,12.667-.911,18.935-1.553a5.451,5.451,0,0,1,6,5.813Z" transform="translate(-247.985 -400.87)"/>
    <path id="パス_258" data-name="パス 258" class="cls-4" d="M429.08,688.839V688.4l90.907-.989,55.387-.518h.155v-.088l.518-6.957.223-3.106.849-11.7.668-9.266v-.228a5.494,5.494,0,0,0-.057-1.279.157.157,0,0,0,0-.052,5.378,5.378,0,0,0-1.035-2.4,5.456,5.456,0,0,0-4.876-2.071c-6.269.642-12.6,1.154-18.935,1.553-.864.062-1.729.114-2.588.16-40.862,2.428-81.356.461-103.268-1.035l-1.553-.114c-3.794-.269-6.967-.518-9.411-.73A5.456,5.456,0,0,0,430.245,654a5.7,5.7,0,0,0-.093.849l-.352,11.471-.481,14.53-.228,7.433v.58Z" transform="translate(-248.038 -402.814)"/>
    <path id="パス_259" data-name="パス 259" class="cls-7" d="M577.961,660.755l-.637,7.935-.947,11.828-.238,2.961-.518,6.631-.031.331v.088h0l-.078.766.057-.766h-.15l-55.387.518-90.922.984v-.145l.254-7.433.518-14.525.331-9.654a3.292,3.292,0,0,1,1.584-2.718,3.235,3.235,0,0,1,1.957-.466c1.087.088,2.423.192,3.981.305,2.531.186,5.653.4,9.286.632,6.729.424,15.172.88,24.846,1.253,26.917,1.035,63.255,1.382,97.771-1.641,1.553-.135,3.158-.285,4.726-.435a3.24,3.24,0,0,1,1.8.342,2.675,2.675,0,0,1,.445.28,3.178,3.178,0,0,1,1.035,1.273,1.844,1.844,0,0,1,.129.316A3.25,3.25,0,0,1,577.961,660.755Z" transform="translate(-248.052 -406.44)"/>
    <path id="パス_260" data-name="パス 260" class="cls-7" d="M354.687,677.87v1.651a3.173,3.173,0,0,1-1.812,2.868l-20.757.4a3.168,3.168,0,0,1-1.848-2.883v-1.553Z" transform="translate(-200.375 -416.469)"/>
    <path id="パス_261" data-name="パス 261" class="cls-4" d="M273.4,511.388l-27.046.518v-4.488L273.4,506.9Z" transform="translate(-118.826 -244.495)"/>
    <path id="パス_262" data-name="パス 262" class="cls-7" d="M273.4,511.388l-27.046.518v-4.488L273.4,506.9Z" transform="translate(-118.826 -244.495)"/>
    <path id="パス_263" data-name="パス 263" class="cls-4" d="M275.4,511.388l-27.046.518v-4.488L275.4,506.9Z" transform="translate(-119.79 -244.495)"/>
    <g id="グループ化_27" data-name="グループ化 27" class="cls-2" transform="translate(222.062 95.422)">
      <path id="パス_264" data-name="パス 264" d="M551.964,359.466a5.047,5.047,0,0,1-.978-2.247,4.91,4.91,0,0,0,.217,2.381A4.659,4.659,0,0,0,551.964,359.466Z" transform="translate(-528.874 -357.22)"/>
      <path id="パス_265" data-name="パス 265" d="M540.052,366.415a18.2,18.2,0,0,1-.192-1.915v1.92Z" transform="translate(-523.536 -360.732)"/>
      <path id="パス_266" data-name="パス 266" d="M621.7,397.518a9.484,9.484,0,0,1,.186-1.372,9.32,9.32,0,0,0,.414-2.428,3.2,3.2,0,0,0-.083-.549c-.088.476-.228.952-.331,1.423a9.9,9.9,0,0,0-.186,2.925Z" transform="translate(-562.994 -374.561)"/>
      <path id="パス_267" data-name="パス 267" d="M600.92,368.224l.564.409a10.2,10.2,0,0,0,1.33-1.149,1.9,1.9,0,0,0,.2-1.884,1.56,1.56,0,0,1-.2.331C602.177,366.749,600.769,367.2,600.92,368.224Z" transform="translate(-552.984 -361.262)"/>
      <path id="パス_268" data-name="パス 268" d="M518.34,380.29a6.372,6.372,0,0,0-.45,1.18,9.4,9.4,0,0,1,2.588-.978Z" transform="translate(-512.939 -368.348)"/>
      <path id="パス_269" data-name="パス 269" d="M531.639,368.817a7.672,7.672,0,0,1-.973-.637,2.194,2.194,0,0,0,.047.611A6.143,6.143,0,0,1,531.639,368.817Z" transform="translate(-519.099 -362.507)"/>
      <path id="パス_270" data-name="パス 270" d="M571.473,428.33c-.212,2.51-1.382,4.928-2.329,7.309a69.474,69.474,0,0,0-3.773,14.913c-.72,4.55-1.553,9.716-5.435,12.237a15.529,15.529,0,0,1-3.535,1.553c-5.58,1.931-11.207,3.867-17.082,4.571s-12.04.088-17.165-2.842a10.352,10.352,0,0,1-3.717-3.277c-1.382-2.19-1.408-4.933-2.07-7.438a42.555,42.555,0,0,0-2.071-5.445c-1.144-2.785-2.024-5.694-2.9-8.556q-1.216-3.991-2.428-7.987a14.92,14.92,0,0,1-.59-2.459,9.277,9.277,0,0,0,.59,4.012q1.211,4,2.428,7.987c.875,2.883,1.755,5.772,2.9,8.556a42.557,42.557,0,0,1,2.071,5.446c.652,2.505.678,5.249,2.07,7.438a10.352,10.352,0,0,0,3.717,3.277c5.125,2.93,11.305,3.546,17.165,2.842s11.481-2.64,17.082-4.571a15.528,15.528,0,0,0,3.535-1.553c3.856-2.521,4.716-7.687,5.435-12.237a69.475,69.475,0,0,1,3.773-14.913c1.128-2.837,2.588-5.72,2.34-8.769C571.484,428.392,571.473,428.361,571.473,428.33Z" transform="translate(-508.324 -391.521)"/>
      <path id="パス_271" data-name="パス 271" d="M510.2,420.273v-.057a7.248,7.248,0,0,0-.238-2.718,13.776,13.776,0,0,1-.2-1.719,14.159,14.159,0,0,0,.2,3.271C510.045,419.455,510.138,419.864,510.2,420.273Z" transform="translate(-509.007 -385.467)"/>
      <path id="パス_272" data-name="パス 272" d="M511.989,397.149a14.363,14.363,0,0,1,1.351-1.9c-.947.906-2.7.1-3.064-1.159a3.017,3.017,0,0,0,0,1.553A2.272,2.272,0,0,0,511.989,397.149Z" transform="translate(-509.216 -375.005)"/>
    </g>
    <path id="パス_273" data-name="パス 273" class="cls-7" d="M762.76,656.57s1.641,5.953,0,11.129S762.76,656.57,762.76,656.57Z" transform="translate(-408.642 -406.194)"/>
    <path id="パス_274" data-name="パス 274" class="cls-7" d="M775.649,668.3s.688,7.557-.864,8.9S775.649,668.3,775.649,668.3Z" transform="translate(-414.543 -411.853)"/>
    <line id="線_4" data-name="線 4" class="cls-11" y1="0.518" x2="52.597" transform="translate(103.009 176.975)"/>
    <line id="線_5" data-name="線 5" class="cls-11" y1="0.512" x2="52.597" transform="translate(103.009 183.435)"/>
    <line id="線_6" data-name="線 6" class="cls-11" y1="0.518" x2="52.597" transform="translate(103.009 189.89)"/>
  </g>
</svg>
