<svg xmlns="http://www.w3.org/2000/svg" xmlns:xlink="http://www.w3.org/1999/xlink" width="600.157" height="425.179" viewBox="0 0 600.157 425.179">
  <defs>
    <style>
      .cls-1, .cls-3 {
        fill: #005792;
      }

      .cls-1, .cls-13, .cls-5 {
        opacity: 0.1;
      }

      .cls-2 {
        opacity: 0.5;
      }

      .cls-4 {
        fill: none;
        stroke: #535461;
        stroke-miterlimit: 10;
        stroke-width: 2px;
      }

      .cls-6 {
        fill: #ffd037;
      }

      .cls-7 {
        fill: #a8a8a8;
      }

      .cls-8 {
        opacity: 0.2;
      }

      .cls-9 {
        fill: #e6e6f0;
      }

      .cls-10 {
        fill: #fdc2cc;
      }

      .cls-11 {
        fill: #565171;
      }

      .cls-12 {
        fill: #b45181;
      }

      .cls-14 {
        fill: #f569bc;
      }

      .cls-15 {
        fill: #f7df1e;
      }

      .cls-16 {
        fill: url(#linear-gradient);
      }

      .cls-17 {
        fill: #4f4d59;
      }

      .cls-18 {
        fill: #c48c96;
      }

      .cls-19 {
        fill: #714b4f;
      }

      .cls-20 {
        fill: #ba7855;
      }

      .cls-21 {
        fill: #503f43;
      }

      .cls-22 {
        fill: #e44d26;
      }

      .cls-23 {
        fill: #f16529;
      }

      .cls-24 {
        fill: #ebebeb;
      }

      .cls-25, .cls-31 {
        fill: #fff;
      }

      .cls-26 {
        fill: url(#linear-gradient-2);
      }

      .cls-27, .cls-34 {
        opacity: 0.05;
      }

      .cls-28 {
        fill: #264de4;
      }

      .cls-29 {
        fill: #2965f1;
      }

      .cls-30 {
        fill: #47465a;
      }

      .cls-31 {
        opacity: 0.3;
      }

      .cls-32 {
        fill: #e1a0a7;
      }

      .cls-33 {
        fill: #8f5a6a;
      }
    </style>
    <linearGradient id="linear-gradient" x1="0.5" y1="1" x2="0.5" gradientUnits="objectBoundingBox">
      <stop offset="0" stop-color="gray" stop-opacity="0.251"/>
      <stop offset="0.54" stop-color="gray" stop-opacity="0.122"/>
      <stop offset="1" stop-color="gray" stop-opacity="0.102"/>
    </linearGradient>
    <linearGradient id="linear-gradient-2" x1="0.5" y1="1.001" x2="0.5" y2="0" xlink:href="#linear-gradient"/>
  </defs>
  <g id="グループ化_17" data-name="グループ化 17" transform="translate(0.003 -0.09)">
    <ellipse id="楕円形_1" data-name="楕円形 1" class="cls-1" cx="121.37" cy="23.59" rx="121.37" ry="23.59" transform="translate(355.11 318.648)"/>
    <g id="グループ化_12" data-name="グループ化 12" class="cls-2" transform="translate(352.067 55.911)">
      <path id="パス_3" data-name="パス 3" class="cls-3" d="M705.808,185.964c-1.637.465-3.641,1.677-4.628,4.99-1.935,6.495,2.561,10.91,1.08,17.681a13.209,13.209,0,0,1-2.3,4.961c-1.809,2.452-3.773,3.612-5.679,5.329a16.94,16.94,0,0,0-4.99,8.194,22.682,22.682,0,0,0-.224,10.652,41.781,41.781,0,0,0,2.842,7.465,55.118,55.118,0,0,1,2.934,9.4,22.9,22.9,0,0,1,.643,4.778,42.056,42.056,0,0,1-.574,6.386l-2.751,19.191a57.7,57.7,0,0,0-.752,7.586,37.68,37.68,0,0,0,.879,7.574c.965,5.076,2,10.336,4.215,13.024s5.978,1.723,8.292-3.715c2.2-5.2,2.251-12.145,4.192-17.7,3.061-8.757,9.142-9.934,12.518-18.289,3.239-8.039,2.245-17.847,3.888-26.989,1.148-6.552,3.681-12.524,5.168-19a60.164,60.164,0,0,0,.218-26.162,34.771,34.771,0,0,0-8.143-15.814c-1.43-1.579-2.963-2.986-4.76-3.13-1.912-.149-3.583,2.257-5.472,2.98C710.224,186.211,708.03,185.332,705.808,185.964Z" transform="translate(-688.542 -182.368)"/>
      <path id="パス_4" data-name="パス 4" class="cls-4" d="M724.14,183.23s-3.239,82.885-16.86,131.758" transform="translate(-696.52 -182.735)"/>
      <path id="パス_5" data-name="パス 5" class="cls-4" d="M710.41,198s14.557,13.253,11.795,38.474" transform="translate(-697.852 -189.024)"/>
      <path id="パス_6" data-name="パス 6" class="cls-4" d="M689.14,263.68s23.894,4.806,22.12,19.1" transform="translate(-688.796 -216.988)"/>
      <path id="パス_7" data-name="パス 7" class="cls-4" d="M748.614,215.07s-9.67,8.464-18.284,32.438" transform="translate(-706.334 -196.292)"/>
      <path id="パス_8" data-name="パス 8" class="cls-4" d="M736.9,331.666s-6.6,5.168-11.892-12.926" transform="translate(-704.068 -240.431)"/>
      <path id="パス_9" data-name="パス 9" class="cls-4" d="M696.14,352.111s13.454-1.757,14.695-10.181" transform="translate(-691.777 -250.304)"/>
    </g>
    <path id="パス_10" data-name="パス 10" class="cls-3" d="M752.87,88.984c-3.331.494-7.339,2.039-8.987,6.8-3.233,9.337,6.592,16.406,4.33,26.162a14.66,14.66,0,0,1-4.1,7.034c-3.445,3.394-7.385,4.875-11.117,7.178a20.962,20.962,0,0,0-9.36,11.485,24.191,24.191,0,0,0,.8,15.659c1.751,4.41,4.4,7.7,6.764,11.33a76.767,76.767,0,0,1,7.172,14.184,26.952,26.952,0,0,1,1.907,7.08,42.927,42.927,0,0,1-.465,9.337l-3.417,27.988a58.593,58.593,0,0,0-.655,11.083,43.536,43.536,0,0,0,2.722,11.255c2.6,7.591,5.375,15.5,10.273,19.685s12.582,3.285,16.722-4.491c3.939-7.4,3.216-17.617,6.575-25.571,5.294-12.536,17.744-13.552,23.733-25.45,5.742-11.416,2.532-26.019,4.841-39.283,1.654-9.5,6.133-18,8.43-27.357a64.437,64.437,0,0,0-2.653-38.474,59.038,59.038,0,0,0-18.72-24.25c-3.147-2.5-6.483-4.755-10.221-5.168-3.974-.442-7.149,2.9-10.968,3.744C762.029,89.869,757.389,88.313,752.87,88.984Z" transform="translate(-350.188 -85.07)"/>
    <path id="パス_11" data-name="パス 11" class="cls-4" d="M797.641,86s3.135,121.675-19.271,192.036" transform="translate(-374.17 -85.428)"/>
    <path id="パス_12" data-name="パス 12" class="cls-4" d="M759.38,104.68s31.7,21.247,28.981,58.09" transform="translate(-366.148 -93.381)"/>
    <path id="パス_13" data-name="パス 13" class="cls-4" d="M723.15,198.85s50.027,9.911,48.052,30.745" transform="translate(-350.846 -132.442)"/>
    <path id="パス_14" data-name="パス 14" class="cls-4" d="M843.339,135.92s-19.013,11.318-33.989,45.6" transform="translate(-386.925 -106.682)"/>
    <path id="パス_15" data-name="パス 15" class="cls-4" d="M830.045,304.629S817.01,311.519,803.9,284.18" transform="translate(-384.742 -168.04)"/>
    <path id="パス_16" data-name="パス 16" class="cls-4" d="M749,331.173s27.638-.993,29.211-13.253" transform="translate(-361.82 -182.147)"/>
    <path id="パス_17" data-name="パス 17" class="cls-3" d="M142.422,663.66s4.812,6.317-2.222,15.791-12.846,17.526-10.486,23.452c0,0,10.612-17.646,19.248-17.893S151.925,674.272,142.422,663.66Z" transform="translate(-103.806 -325.229)"/>
    <path id="パス_18" data-name="パス 18" class="cls-5" d="M142.647,663.66a7.793,7.793,0,0,1,1.011,1.975c8.43,9.9,12.915,19.139,4.818,19.375-7.545.218-16.6,13.707-18.766,17.118a7.31,7.31,0,0,0,.258.775s10.612-17.646,19.248-17.893S152.151,674.272,142.647,663.66Z" transform="translate(-104.031 -325.229)"/>
    <path id="パス_19" data-name="パス 19" class="cls-6" d="M166.968,676.586c0,2.216-.247,4.02-.574,4.02s-.574-1.8-.574-4.02.31-1.148.614-1.148S166.968,674.37,166.968,676.586Z" transform="translate(-119.406 -330.133)"/>
    <path id="パス_20" data-name="パス 20" class="cls-6" d="M170.357,681.106c-1.947,1.063-3.641,1.723-3.784,1.43s1.309-1.349,3.256-2.406,1.177-.287,1.327,0S172.3,680.043,170.357,681.106Z" transform="translate(-119.722 -332.011)"/>
    <path id="パス_21" data-name="パス 21" class="cls-3" d="M99.99,663.66s-4.812,6.317,2.222,15.791,12.834,17.52,10.486,23.446c0,0-10.612-17.646-19.248-17.893S90.475,674.272,99.99,663.66Z" transform="translate(-86.778 -325.229)"/>
    <path id="パス_22" data-name="パス 22" class="cls-5" d="M99.99,663.66a7.792,7.792,0,0,0-.982,1.975c-8.43,9.9-12.915,19.139-4.818,19.375,7.545.218,16.6,13.707,18.766,17.118a7.307,7.307,0,0,1-.258.775S102.086,685.257,93.45,685.01,90.475,674.272,99.99,663.66Z" transform="translate(-86.778 -325.229)"/>
    <path id="パス_23" data-name="パス 23" class="cls-6" d="M92.4,676.586c0,2.216.247,4.02.574,4.02s.574-1.8.574-4.02-.31-1.148-.614-1.148S92.4,674.37,92.4,676.586Z" transform="translate(-88.146 -330.133)"/>
    <path id="パス_24" data-name="パス 24" class="cls-6" d="M86.172,681.106c1.947,1.063,3.641,1.723,3.784,1.43s-1.309-1.349-3.256-2.406-1.177-.287-1.326,0S84.231,680.043,86.172,681.106Z" transform="translate(-84.99 -332.011)"/>
    <path id="パス_25" data-name="パス 25" class="cls-7" d="M95.07,725.172s13.454-.414,17.508-3.3,20.672-6.317,21.7-1.723,20.219,23.032,5.03,23.153-35.293-2.366-39.341-4.829S95.07,725.172,95.07,725.172Z" transform="translate(-89.283 -348.324)"/>
    <path id="パス_26" data-name="パス 26" class="cls-8" d="M139.579,747.079c-15.189.121-35.293-2.366-39.341-4.829-3.084-1.878-4.313-8.613-4.72-11.72H95.07s.85,10.853,4.9,13.316,24.152,4.956,39.341,4.829c4.387-.034,5.9-1.6,5.817-3.9C144.517,746.184,142.846,747.057,139.579,747.079Z" transform="translate(-89.283 -353.7)"/>
    <path id="パス_27" data-name="パス 27" class="cls-3" d="M1051.51,651.225a6.7,6.7,0,0,0,2.2-3.319,2.946,2.946,0,0,0-1.539-3.382c-1.413-.54-2.923.436-4.065,1.43s-2.458,2.119-3.957,1.906a6.018,6.018,0,0,0,1.86-5.633,2.352,2.352,0,0,0-.517-1.149c-.787-.839-2.2-.477-3.147.184-2.986,2.1-3.818,6.156-3.836,9.808a18.8,18.8,0,0,1-.057-4.02c-.012-1.332-.379-2.871-1.516-3.572a4.594,4.594,0,0,0-2.3-.546,4.783,4.783,0,0,0-3.756,1.068c-1.149,1.217-.844,3.267.149,4.594a14.943,14.943,0,0,0,3.888,3.112,8.615,8.615,0,0,1,2.78,2.647,2.616,2.616,0,0,1,.206.471h8.413A23.442,23.442,0,0,0,1051.51,651.225Z" transform="translate(-478.73 -316.71)"/>
    <path id="パス_28" data-name="パス 28" class="cls-1" d="M209.259,407.994c18.567,23.234,11.355,57.177-.443,84.355-3.95,9.1-8.42,18.732-6.751,28.488,2.036,11.933,12.837,20.672,24.227,25.266a73.133,73.133,0,0,0,64.54-5.231c16.449-10.072,28.229-26.449,44.958-36.062,28.008-16.079,63.636-10.009,94.036,1.068,21.508,7.838,45.022,18.037,66.4,9.842,15.037-5.742,25.434-19.794,31.1-34.667,2.737-7.184,4.72-14.93,9.919-20.672a36.99,36.99,0,0,1,11.308-7.809c37.927-18.5,85.773-8.614,122.58-29.1,24.863-13.85,40.78-39.984,47.846-67.231s6.226-55.821,4.434-83.879c-1.272-19.943-3.553-41.23-16.5-56.625-13.695-16.28-37.2-22.338-58.448-19.243s-40.512,14.178-57.433,27.167c-21.175,16.234-40.809,36.452-66.81,43.033-17.7,4.479-36.328,2.027-54.592,1.183-30.528-1.418-61.062,1.723-91.421,5.168-29.064,3.308-58.349,6.948-86.024,16.251-19.594,6.587-35.3,18.536-53.8,26.886-12.061,5.444-25.213,6.948-36.626,13.879-14.068,8.539-26.957,23.394-23.34,40.771C181.806,387.373,199.4,395.665,209.259,407.994Z" transform="translate(-124.504 -125.993)"/>
    <ellipse id="楕円形_2" data-name="楕円形 2" class="cls-1" cx="249.921" cy="23.59" rx="249.921" ry="23.59" transform="translate(71.594 232.442)"/>
    <ellipse id="楕円形_3" data-name="楕円形 3" class="cls-1" cx="121.37" cy="23.59" rx="121.37" ry="23.59" transform="translate(7.062 370.904)"/>
    <path id="パス_29" data-name="パス 29" class="cls-9" d="M523.284,511.48l-1.924,2.8s2.1,2.8,2.3,3.147,6.116-.172,6.116-.172l.522-2.1-.873-2.446Z" transform="translate(-267.05 -262.939)"/>
    <path id="パス_30" data-name="パス 30" class="cls-10" d="M324.237,423.67l-3.847.695,2.446,4.726,2.624,1.4,2.446,1.746.7-1.918-1.751-3.675Z" transform="translate(-133.675 -176.704)"/>
    <path id="パス_31" data-name="パス 31" class="cls-11" d="M513.2,429.495s20.454,4.892,24.3,10.336c0,0,3.5,2.974,0,8.389s-8.39,17.658-8.39,17.658-3.5,11.887-4.892,12.76-9.44,1.573-10.141-1.723c0,0,4.542-7.166,4.542-10.491s7.517-19.053,7.517-19.053-17.129-1.924-22.55-.7S506.037,427.571,513.2,429.495Z" transform="translate(-258.701 -228.329)"/>
    <path id="パス_32" data-name="パス 32" class="cls-5" d="M513.2,429.495s20.454,4.892,24.3,10.336c0,0,3.5,2.974,0,8.389s-8.39,17.658-8.39,17.658-3.5,11.887-4.892,12.76-9.44,1.573-10.141-1.723c0,0,4.542-7.166,4.542-10.491s7.517-19.053,7.517-19.053-17.129-1.924-22.55-.7S506.037,427.571,513.2,429.495Z" transform="translate(-258.701 -228.329)"/>
    <path id="パス_33" data-name="パス 33" class="cls-11" d="M469.77,434.331c-.04,1.016-.149,2.159-.3,3.388-1.12,8.9-4.766,22.137-4.766,22.137s-3.669,7.867-4.72,12.937-8.217,6.317-8.217,6.317-19.581,2.3-23.6,1.4-10.336,2.624-13.46,2.1-5.071-7.867-5.071-7.867a37.9,37.9,0,0,0,15.734-3.319c8.039-3.669,19.581-1.924,19.581-1.924a6.575,6.575,0,0,0,4.02-3.319c1.223-2.624,1.223-18.531.873-19.581-2.3-6.891-2.107-11.312-1.447-13.891a6.93,6.93,0,0,1,1.447-3.066Z" transform="translate(-220.168 -228.416)"/>
    <path id="パス_34" data-name="パス 34" class="cls-5" d="M498.526,434.31c-.04,1.016-.149,2.159-.3,3.388-1.757.138-6.684.27-10.336-1.987-3.445-2.113-8.458-2.831-10.715-3.055a6.93,6.93,0,0,1,1.447-3.066Z" transform="translate(-248.541 -228.758)"/>
    <path id="パス_35" data-name="パス 35" class="cls-9" d="M500.058,427.848c-.815,2.3-2.067,4.99-2.067,4.99s-6.466.873-11.014-1.924-11.887-3.147-11.887-3.147c1.189-.729,1.993-2.946,2.492-4.887a30.972,30.972,0,0,0,.655-3.331s21.5,4.37,22.4,5.071C500.965,424.9,500.609,426.286,500.058,427.848Z" transform="translate(-247.647 -224.532)"/>
    <path id="パス_36" data-name="パス 36" class="cls-10" d="M564.036,292.236l-26.076,15.74-2.59,1.562v-7.689l1.8-.861,21.976-10.5s1.051-19.053,3.847-16.079S564.036,292.236,564.036,292.236Z" transform="translate(-272.757 -163.772)"/>
    <path id="パス_37" data-name="パス 37" class="cls-5" d="M537.96,327.918l-2.59,1.562v-7.689l1.8-.861A56.6,56.6,0,0,0,537.96,327.918Z" transform="translate(-272.937 -183.425)"/>
    <path id="パス_38" data-name="パス 38" class="cls-12" d="M504.93,329.966l18.7-10.836s.35,10.491,2.446,12.059c0,0-7.689,2.3-10.664,7.166Z" transform="translate(-260.119 -182.621)"/>
    <path id="パス_39" data-name="パス 39" class="cls-5" d="M504.93,329.966l18.7-10.836s.35,10.491,2.446,12.059c0,0-7.689,2.3-10.664,7.166Z" transform="translate(-260.119 -182.621)"/>
    <path id="パス_40" data-name="パス 40" class="cls-10" d="M569.852,340.577a116.66,116.66,0,0,1-14.786,5.3,11.614,11.614,0,0,1-4.094.471c-4.02-.7,1.051-5.742,1.051-5.742l2.113-.327,11.347-1.769s1.223-17.48,3.319-16.079S569.852,340.577,569.852,340.577Z" transform="translate(-278.676 -183.938)"/>
    <path id="パス_41" data-name="パス 41" class="cls-10" d="M505.281,320.717s-7.517,5.593-4.72,12.587-14.511-4.2-14.511-4.2,5.593-8.389,6.816-14.683S505.281,320.717,505.281,320.717Z" transform="translate(-252.257 -179.905)"/>
    <path id="パス_42" data-name="パス 42" class="cls-5" d="M501.91,427.848a39.624,39.624,0,0,0-10.107-2.354,53.915,53.915,0,0,1-12.363-2.613,30.938,30.938,0,0,0,.655-3.331s21.5,4.37,22.4,5.071C502.817,424.9,502.461,426.286,501.91,427.848Z" transform="translate(-249.476 -224.568)"/>
    <path id="パス_43" data-name="パス 43" class="cls-5" d="M555.055,359.169a11.612,11.612,0,0,1-4.094.471c-4.02-.7,1.051-5.742,1.051-5.742l2.113-.327A6.162,6.162,0,0,1,555.055,359.169Z" transform="translate(-278.774 -197.056)"/>
    <path id="パス_44" data-name="パス 44" class="cls-12" d="M488.429,332.167s-6.816-.172-9.262,2.624-1.924,10.336-1.924,10.336-.511,15.1,3.319,23.544a1.148,1.148,0,0,1,.04.867c-.04.1-.04.04-.04.04s-2.446,11.014-4.893,12.938,5.243,4.2,14.356,5.243,12.759,3.669,12.759,3.669,1.573-1.723,1.723-5.593-2.429-31.991-2.429-31.991,9.613,2.446,15.384-.523c0,0,2.624,1.4,5.07-2.446s-1.723-8.039-1.723-8.039-3.847,3.847-14.511-1.223S491.742,331.994,488.429,332.167Z" transform="translate(-247.555 -187.812)"/>
    <path id="パス_45" data-name="パス 45" class="cls-9" d="M405.656,509.35h-2.1v2.974l2.1,4.72s2.8.523,2.975.523,2.446-.523,2.446-.523l.7-1.223S404.082,512.841,405.656,509.35Z" transform="translate(-217.906 -262.031)"/>
    <path id="パス_46" data-name="パス 46" class="cls-12" d="M519.337,514,516.19,521l13.288,6.317,10.491.35s.873-2.446-2.624-3.669l-2.8-.523s-3.669-6.644-4.02-9.762c0,0-3.5.7-4.02,3.319C526.5,516.972,521.611,519.418,519.337,514Z" transform="translate(-264.796 -263.798)"/>
    <path id="パス_47" data-name="パス 47" class="cls-12" d="M400.2,508.13l-1.068.873-4.7,3.847,10.836,14.356s6.116,2.624,8.918,0c0,0,1.723-1.723-2.1-3.147,0,0-2.975.522-2.975-2.447s.7-6.116,1.723-6.816c0,0-2.624-.873-3.319-.172a11.093,11.093,0,0,0-1.4,1.924S399.845,514.073,400.2,508.13Z" transform="translate(-214.042 -261.413)"/>
    <path id="パス_48" data-name="パス 48" class="cls-5" d="M496.8,315.033a21.216,21.216,0,0,1-.7,2.618,9.09,9.09,0,0,0,11.64,5,14.445,14.445,0,0,1,1.476-1.327S498.024,308.74,496.8,315.033Z" transform="translate(-256.486 -180.224)"/>
    <path id="パス_49" data-name="パス 49" class="cls-5" d="M495.64,357s5.421,7.166,13.288,7.344" transform="translate(-256.293 -198.48)"/>
    <g id="グループ化_13" data-name="グループ化 13" class="cls-13" transform="translate(227.454 144.378)">
      <path id="パス_50" data-name="パス 50" d="M551.438,369.131a1.974,1.974,0,0,1-.322-.121q-.253.132-.517.247A3.269,3.269,0,0,0,551.438,369.131Z" transform="translate(-507.124 -347.879)"/>
      <path id="パス_51" data-name="パス 51" d="M551.894,351.481a8.673,8.673,0,0,0-.609-.7,6.512,6.512,0,0,1-3.985,1.367A9.647,9.647,0,0,0,551.894,351.481Z" transform="translate(-505.719 -340.117)"/>
      <path id="パス_52" data-name="パス 52" d="M524.71,369.92l.035.373a34.718,34.718,0,0,0,6.994.574A36.393,36.393,0,0,1,524.71,369.92Z" transform="translate(-496.101 -348.266)"/>
      <path id="パス_53" data-name="パス 53" d="M491.439,387.79c-9.09-1.051-16.779-3.319-14.356-5.243s4.892-12.937,4.892-12.937,0,.063.04-.04a1.148,1.148,0,0,0-.04-.867c-3.83-8.47-3.319-23.544-3.319-23.544s-.523-7.517,1.924-10.336c1.82-2.084,6.064-2.515,8.114-2.6a3.719,3.719,0,0,0-.574,0s-6.816-.172-9.262,2.624-1.924,10.336-1.924,10.336-.511,15.1,3.319,23.544a1.149,1.149,0,0,1,.04.867c-.04.1-.04.04-.04.04s-2.429,10.979-4.9,12.9,5.243,4.2,14.356,5.243,12.759,3.669,12.759,3.669a4.482,4.482,0,0,0,.482-.706A35.872,35.872,0,0,0,491.439,387.79Z" transform="translate(-474.888 -332.211)"/>
    </g>
    <ellipse id="楕円形_4" data-name="楕円形 4" class="cls-10" cx="9.09" cy="9.09" rx="9.09" ry="9.09" transform="translate(239.29 124.406)"/>
    <path id="パス_54" data-name="パス 54" class="cls-5" d="M501.3,299.076c-.752,1.884-3,2.6-4.967,3.084-2.814.689-5.846,1.367-8.539.3a1.866,1.866,0,0,0-1.148-.224,1.527,1.527,0,0,0-.758.66c-2.969,4.226-2.486,9.86-3.256,14.97a8.315,8.315,0,0,1-1.723,4.422c-2.09,2.3-6.035,2.211-7.959,4.651-1.269,1.608-1.281,3.842-1.269,5.892q0,3.279-.057,6.563a9.692,9.692,0,0,1-.752,4.2c-1.1,2.159-3.56,3.187-5.828,4.02a9.993,9.993,0,0,1-4.387.919,3.428,3.428,0,0,1-3.227-2.664c-.27-2.056,1.849-3.491,3.308-4.973,2.331-2.36,3.29-5.794,3.376-9.113a9.759,9.759,0,0,0-.574-3.945c-.534-1.3-1.487-2.4-2.062-3.687-1.769-3.962.413-8.545,3.026-12.013s5.823-6.851,6.38-11.152a15.464,15.464,0,0,1,.4-2.762c.4-1.252,1.355-4.709,2.406-5.5a12.5,12.5,0,0,1,5.742-2.389c1.613-.235,3.262-.149,4.864-.459,1.872-.362,3.612-1.252,5.484-1.585,4.048-.718,8.441,3.985,10.216,7.695C500.483,297.117,501.764,297.921,501.3,299.076Z" transform="translate(-240.165 -169.525)"/>
    <path id="パス_55" data-name="パス 55" class="cls-14" d="M501.3,298.465c-.752,1.883-3,2.6-4.967,3.084-2.814.689-5.846,1.367-8.539.3a1.866,1.866,0,0,0-1.148-.224,1.526,1.526,0,0,0-.758.66c-2.969,4.226-2.486,9.86-3.256,14.97a8.315,8.315,0,0,1-1.723,4.422c-2.09,2.3-6.035,2.211-7.959,4.651-1.269,1.608-1.281,3.842-1.269,5.892q0,3.279-.057,6.564a9.692,9.692,0,0,1-.752,4.2c-1.1,2.159-3.56,3.187-5.828,4.02a9.993,9.993,0,0,1-4.387.919,3.429,3.429,0,0,1-3.227-2.664c-.27-2.056,1.849-3.491,3.308-4.973,2.331-2.36,3.29-5.794,3.376-9.113a9.759,9.759,0,0,0-.574-3.945c-.534-1.3-1.487-2.4-2.062-3.687-1.769-3.962.413-8.545,3.026-12.013s5.823-6.851,6.38-11.152a15.465,15.465,0,0,1,.4-2.762c.4-1.252,1.355-4.709,2.406-5.5a12.5,12.5,0,0,1,5.742-2.389c1.613-.235,3.262-.149,4.864-.459,1.872-.362,3.612-1.252,5.484-1.585,4.048-.718,8.441,3.985,10.216,7.695C500.483,296.507,501.764,297.311,501.3,298.465Z" transform="translate(-240.165 -169.271)"/>
    <path id="パス_56" data-name="パス 56" class="cls-15" d="M585,276.09H736.121V427.2H585Z" transform="translate(-292.221 -163.846)"/>
    <path id="パス_57" data-name="パス 57" d="M654.21,453.194l11.565-7c2.234,3.956,4.261,7.3,9.13,7.3,4.669,0,7.609-1.826,7.609-8.924V396.287h14.2V444.77c0,14.706-8.614,21.4-21.2,21.4-11.358,0-17.951-5.886-21.3-12.983m50.211-1.522,11.56-6.7c3.043,4.973,7,8.613,14,8.613,5.886,0,9.636-2.94,9.636-7,0-4.869-3.853-6.592-10.336-9.435l-3.549-1.522c-10.244-4.359-17.043-9.837-17.043-21.4,0-10.652,8.114-18.766,20.793-18.766,9.027,0,15.5,3.147,20.184,11.358l-11.054,7.1c-2.435-4.364-5.071-6.087-9.13-6.087-4.158,0-6.8,2.636-6.8,6.087,0,4.261,2.636,5.984,8.723,8.614l3.549,1.522c12.059,5.168,18.869,10.445,18.869,22.315,0,12.782-10.043,19.782-23.544,19.782-13.207,0-21.706-6.317-25.841-14.505" transform="translate(-321.579 -214.041)"/>
    <path id="パス_58" data-name="パス 58" class="cls-16" d="M894.977,548.193s-5.9.413-9.538-5.9a21.166,21.166,0,0,0-2.509-3.566,12.059,12.059,0,0,1-1.763-6.4c.2-4.68-4.68-30.314-4.68-30.314s.609-9.762-4.272-15.866c-3.216-4.02-7.838-15.5-10.623-22.923a1.533,1.533,0,0,0,.655.344l-.115-.637h.115l-1.441-7.919a36.1,36.1,0,0,1-5.26-7.97l.327-.069,4.318-.907s7.017-9.974,7.465-14.878h1.384a168.835,168.835,0,0,1,19.444,1.016h0c0-.029-.046-.155-.1-.356h0a24.35,24.35,0,0,1-.632-3h.4l4.02-.264s13.833-15.458,8.746-18.307-10.376,12.817-10.376,12.817l-1.723.31-.465.086c.046-.069.092-.132.143-.2s-22.579-1.011-26.064-6.512c0,0-9.969-7.936-10.377-13.207a5.966,5.966,0,0,0-3.583-5.076,7.822,7.822,0,0,0-3.957-.741l-4.669.322.328.574h-.132a15.727,15.727,0,0,1-.735-2.067h.1c-.034-.144-.063-.287-.092-.431a10.985,10.985,0,0,0,8.091-13.529,4.391,4.391,0,0,0,1.372-.04,4.023,4.023,0,0,0,2.98-3.842v-.408a5.9,5.9,0,0,0-2.268-4.536,33.141,33.141,0,0,1-2.871-2.188,21.537,21.537,0,0,1-2.337-3.618,10.739,10.739,0,0,0-5.513-4.29c-1.682-.574-3.75-.632-5.042.574-.666.626-1.051,1.533-1.8,2.061-1.074.769-2.532.54-3.847.695a7.339,7.339,0,0,0-5.53,4.14,9.542,9.542,0,0,0-.907,4.376,11.7,11.7,0,0,0,.367,3.072c.253,1,.626,1.964.9,2.963.574,2.067.706,4.244,1.367,6.282a7.9,7.9,0,0,0,2.544,3.865l-.2.838c-.126,0-3.3.706-5.484,5.49-1.723,3.773-7.586,7.666-10.164,9.239a4.237,4.237,0,0,0-1.918,2.665,13.843,13.843,0,0,0-.328,3.382,23.418,23.418,0,0,0,2.435,10.147c4.474,9.762,7.729,14.034,7.729,14.034s.247,2.992.264,6.144a18.131,18.131,0,0,1-.672,5.857c-.425.988-.574,3.509-.54,6.391,0,5.524.54,12.731.54,12.731s1.556.3,3.962.649l1.5,26.369a12.678,12.678,0,0,1-2.871,8.809,19.486,19.486,0,0,1-3.612,3.445c-4.272,3.049-13.426,35.195-13.426,35.195a11.253,11.253,0,0,1,1.183.086l-2.814,7.85s11.244,8.614,18.083,6.259a6.629,6.629,0,0,1,2.3-.321c1.349,0,4.238-1.068,2.63-2.475a104.225,104.225,0,0,1-8.768-9.119,4.681,4.681,0,0,1,.631.373V545.7l.1.063a6.465,6.465,0,0,1,.075-.833l-.1-.035c.207-2.113.861-7.465,2.159-8.085,1.625-.815,13.632-24.617,13.632-24.617l12-30.922s9.561,16.481,17.7,19.323v6.891s4.473,20.345,6.1,22.579,0,11.186,0,11.186a5.584,5.584,0,0,0,1.1.965l-1.3,7.373s9.36-.408,25.226,4.473C893.96,554.091,900.065,551.449,894.977,548.193ZM857.548,441.8l-1.981.494-.39.1c-.04-.247-.069-.39-.069-.39a4.019,4.019,0,0,1-1.441.35,26.514,26.514,0,0,1-1.206-6.862,46.249,46.249,0,0,1-1.211-8.5,6.093,6.093,0,0,1,.8-3.5l.66.052.459.436.034.029.235.212h0l.247.218.04.034.264.236.046.04.27.23h0l.3.253.069.057.322.258h0l.316.253.075.057.35.264.075.052.333.247.057.04.379.27.092.063.4.276h.034l.39.258.092.063.419.27.092.057.39.241.075.046.448.264.109.063.465.258h.034l.454.241.109.057.482.241.1.046.448.207.086.04.505.218.121.052.523.212h0C859.214,433.473,857.548,441.8,857.548,441.8Z" transform="translate(-381.768 -199.123)"/>
    <path id="パス_59" data-name="パス 59" class="cls-17" d="M808.253,668.16l-3.773,10.526s10.336,7.924,17.055,6.282a18.776,18.776,0,0,1,3.084-.5c1.39-.1,3.784-1.12,2.3-2.406a127.07,127.07,0,0,1-11.123-11.916Z" transform="translate(-385.02 -328.173)"/>
    <path id="パス_60" data-name="パス 60" class="cls-17" d="M919.016,664.665l-1.786,10.13s9.136-.4,24.629,4.37c0,0,5.961-2.584.994-5.742,0,0-5.742.4-9.331-5.742s-5.742-5.363-5.742-5.363Z" transform="translate(-430.654 -325.725)"/>
    <path id="パス_61" data-name="パス 61" class="cls-18" d="M824.874,524.441l1.723,30.825a12.748,12.748,0,0,1-3.038,9.016,18.684,18.684,0,0,1-3.279,3.061c-4.169,2.98-13.11,34.356-13.11,34.356s10.13.574,12.909,2.584c0,0,.574-7.942,2.182-8.74s13.305-24.032,13.305-24.032l11.72-30.188s9.331,16.079,17.279,18.869v6.753s4.37,19.863,5.961,22.045,0,10.91,0,10.91,4.594,5.742,15.091-.4c0,0-3.377-3.773-3.176-8.344s-4.594-29.59-4.594-29.59.574-9.532-4.169-15.5S861.05,517.28,861.05,517.28l-5.467-11.76Z" transform="translate(-385.457 -259.412)"/>
    <g id="グループ化_14" data-name="グループ化 14" class="cls-13" transform="translate(421.751 246.113)">
      <path id="パス_62" data-name="パス 62" d="M809.206,601.7s8.935-31.376,13.11-34.356a18.955,18.955,0,0,0,3.445-3.262,12.634,12.634,0,0,0,2.871-8.809l-1.751-30.831,29.286-18.054-.4-.856-30.676,18.915,1.752,30.831a12.634,12.634,0,0,1-2.871,8.809,18.956,18.956,0,0,1-3.445,3.262c-4.163,2.974-13.11,34.351-13.11,34.351s10.129.574,12.909,2.584a6.076,6.076,0,0,1,.075-.81C816.493,602.128,809.206,601.7,809.206,601.7Z" transform="translate(-807.42 -505.53)"/>
      <path id="パス_63" data-name="パス 63" d="M903.118,626.449s1.591-8.74,0-10.911-5.96-22.045-5.96-22.045v-6.765c-7.942-2.779-17.279-18.869-17.279-18.869l-.689,1.8c2.693,4.272,9.877,14.873,16.188,17.078v6.753s4.37,19.863,5.961,22.045,0,10.911,0,10.911,2.216,2.791,7.109,2.412A7.784,7.784,0,0,1,903.118,626.449Z" transform="translate(-837.977 -532.068)"/>
    </g>
    <path id="パス_64" data-name="パス 64" class="cls-19" d="M952.585,464.786l-3.9.258-2.056.138v-4.967l2.7-.488,1.671-.3s5.168-15.292,10.13-12.513S952.585,464.786,952.585,464.786Z" transform="translate(-443.172 -235.761)"/>
    <path id="パス_65" data-name="パス 65" class="cls-19" d="M845.539,407s-2.584,9.928-3.376,16.079,18.467,1.194,18.467,1.194-7.35-8.935-3.175-13.7Z" transform="translate(-400.775 -219.258)"/>
    <path id="パス_66" data-name="パス 66" class="cls-9" d="M865.823,453.939l.4,3.773-6.156-.4-6.156-5.363-6.156-17.284-3.962-6.161-2.98-3.773L842,420.14s.546.477,1.464,1.177c3.026,2.3,10.118,7.126,15.3,5.794a6.176,6.176,0,0,0,.706-.224l7.746,13.305Z" transform="translate(-400.129 -224.594)"/>
    <path id="パス_67" data-name="パス 67" class="cls-5" d="M832.682,418.106s-3.175.574-5.363,5.363c-1.677,3.664-7.35,7.465-9.883,9a4.238,4.238,0,0,0-1.924,2.676c-.511,2.262-.706,6.483,2.073,12.553,4.37,9.532,7.545,13.7,7.545,13.7s.792,9.532-.4,12.311,0,18.071,0,18.071,20.85,3.974,27.8,0,5.96-19.266,5.96-19.266,6.552,13.9,8.935,14.3l-1.39-7.746S858.3,470.723,857.9,460c0,0-2.383-9.733-.4-12.312,0,0,33.564,2.779,35.551.4,0,0-22.045-.993-25.421-6.357,0,0-9.733-7.746-10.13-12.909a5.708,5.708,0,0,0-2.98-4.68,7.775,7.775,0,0,0-4.45-.993l-4.485.31s7.747,13.7,7.35,15.5.4,16.285.4,16.285-8.964-19.266-12.909-21.448-8.545-11.163-8.545-11.163l.793-4.536" transform="translate(-388.808 -223.404)"/>
    <path id="パス_68" data-name="パス 68" class="cls-5" d="M865.823,453.939l.4,3.773-6.156-.4-6.156-5.363-6.156-17.284-3.962-6.161-2.98-3.773L842,420.14s.546.477,1.464,1.177l-.276,1.568s4.594,8.97,8.539,11.157,12.909,21.448,12.909,21.448-.792-14.5-.4-16.285c.27-1.212-3.21-7.907-5.472-12.093a6.2,6.2,0,0,0,.706-.224l7.746,13.305Z" transform="translate(-400.129 -224.594)"/>
    <path id="パス_69" data-name="パス 69" class="cls-5" d="M948.686,474.8l-2.056.138v-4.967l2.7-.488C948.387,470.726,948.422,472.931,948.686,474.8Z" transform="translate(-443.172 -245.42)"/>
    <path id="パス_70" data-name="パス 70" class="cls-18" d="M832.682,417.08s-3.175.574-5.363,5.363c-1.677,3.664-7.35,7.465-9.883,9a4.238,4.238,0,0,0-1.924,2.676c-.511,2.263-.706,6.483,2.073,12.553,4.37,9.532,7.545,13.7,7.545,13.7s.792,9.532-.4,12.312,0,18.071,0,18.071,20.85,3.974,27.8,0,5.96-19.266,5.96-19.266,6.547,13.879,8.935,14.3l-1.39-7.746S858.3,469.7,857.9,458.982c0,0-2.383-9.733-.4-12.312,0,0,7.747,8.344,16.486,8.143a164.43,164.43,0,0,1,19.065.993s-1.987-6.357,0-8.74c0,0-22.045-.993-25.421-6.357,0,0-9.733-7.746-10.13-12.909a5.708,5.708,0,0,0-2.98-4.68,7.776,7.776,0,0,0-4.45-.993l-4.485.31s7.747,13.7,7.35,15.5.4,16.285.4,16.285-8.964-19.277-12.909-21.459-8.545-11.14-8.545-11.14l.793-4.536" transform="translate(-388.808 -222.981)"/>
    <path id="パス_71" data-name="パス 71" class="cls-5" d="M833.891,453.39s4.766,16.079,7.545,18.071,19.662,12.116,24.629,9.733c0,0,1.194,5.961-.574,7.35,0,0-18.519-.724-18.668-.792,0,0-12.116-1.591-14.1-7.546s-4.37-16.079-4.37-16.079Z" transform="translate(-394.795 -238.464)"/>
    <ellipse id="楕円形_5" data-name="楕円形 5" class="cls-20" cx="0.695" cy="0.993" rx="0.695" ry="0.993" transform="translate(463.868 231.083)"/>
    <ellipse id="楕円形_6" data-name="楕円形 6" class="cls-20" cx="0.695" cy="0.993" rx="0.695" ry="0.993" transform="translate(465.879 238.134)"/>
    <g id="グループ化_15" data-name="グループ化 15" class="cls-13" transform="translate(426.396 194.082)">
      <path id="パス_72" data-name="パス 72" d="M826.13,490.523s-1.194-15.292,0-18.071.4-12.312.4-12.312-3.175-4.169-7.546-13.7c-2.785-6.07-2.584-10.29-2.073-12.553a4.238,4.238,0,0,1,1.924-2.676c2.532-1.55,8.2-5.335,9.883-9a10.367,10.367,0,0,1,3.894-4.726l.074-.436s-3.175.574-5.363,5.363c-1.677,3.664-7.35,7.465-9.883,9a4.238,4.238,0,0,0-1.924,2.676c-.511,2.263-.706,6.483,2.073,12.553,4.37,9.532,7.545,13.7,7.545,13.7s.792,9.532-.4,12.312,0,18.071,0,18.071,14.9,2.837,23.7,1.315C839.544,493.1,826.13,490.523,826.13,490.523Z" transform="translate(-815.205 -417.05)"/>
      <path id="パス_73" data-name="パス 73" d="M875.46,441.835c-.27,1.223,0,8.418.224,12.828.959,1.958,1.562,3.262,1.562,3.262s-.792-14.5-.4-16.285c.379-1.723-6.6-14.161-7.293-15.389l-1.447.1S875.862,440.049,875.46,441.835Z" transform="translate(-837.73 -420.967)"/>
      <path id="パス_74" data-name="パス 74" d="M907.406,476.4c-8.74.2-16.486-8.143-16.486-8.143a3.181,3.181,0,0,0-.5,1.074c2.3,2.136,8.613,7.425,15.6,7.264a164.419,164.419,0,0,1,19.064.993s-.04-.132-.1-.356A158.107,158.107,0,0,0,907.406,476.4Z" transform="translate(-847.229 -438.853)"/>
      <path id="パス_75" data-name="パス 75" d="M893,511.49s.08,1.24.034,3.1c2.067,4.1,5.828,11.111,7.511,11.393l-.293-1.631C897.364,520.724,893,511.49,893,511.49Z" transform="translate(-848.327 -457.259)"/>
    </g>
    <path id="パス_76" data-name="パス 76" class="cls-19" d="M897.1,495.3l-4.221.89-3.331.7,1.786-4.967,1.246-.31,1.935-.482s2.779-13.9,8.344-12.909S897.1,495.3,897.1,495.3Z" transform="translate(-420.593 -248.936)"/>
    <path id="パス_77" data-name="パス 77" class="cls-5" d="M892.89,506.187l-3.331.7,1.786-4.967,1.246-.31a19.837,19.837,0,0,1,.3,4.577Z" transform="translate(-420.733 -258.828)"/>
    <path id="パス_78" data-name="パス 78" class="cls-18" d="M833.891,452.7s4.766,16.078,7.545,18.071,19.662,12.116,24.629,9.733c0,0,1.194,5.961-.574,7.35,0,0-18.519-.724-18.668-.792,0,0-12.116-1.591-14.1-7.545s-4.37-16.079-4.37-16.079Z" transform="translate(-394.795 -238.177)"/>
    <path id="パス_79" data-name="パス 79" class="cls-5" d="M847.7,407.74s-.4,1.556-.942,3.819a10.721,10.721,0,0,0,11.835,5.455,6.172,6.172,0,0,1,1.022-5.7Z" transform="translate(-402.767 -219.633)"/>
    <ellipse id="楕円形_7" data-name="楕円形 7" class="cls-19" cx="10.727" cy="10.727" rx="10.727" ry="10.727" transform="translate(442.628 175.682)"/>
    <path id="パス_80" data-name="パス 80" class="cls-5" d="M861.247,386.282a5.741,5.741,0,0,0,2.389.149,3.933,3.933,0,0,0,2.906-3.75,5.742,5.742,0,0,0-2.211-4.427c-.907-.758-1.993-1.292-2.825-2.136a21.927,21.927,0,0,1-2.3-3.532,10.479,10.479,0,0,0-5.381-4.186c-1.642-.574-3.658-.62-4.921.574-.649.614-1.028,1.493-1.751,2.016-1.051.746-2.475.528-3.755.678a7.161,7.161,0,0,0-5.4,4.02,10.113,10.113,0,0,0-.528,6.891c.247.976.615,1.918.879,2.871.574,2.021.689,4.14,1.332,6.133s1.97,3.945,3.979,4.542a12.58,12.58,0,0,1,1.281-6.483,1.86,1.86,0,0,1,.907-1.011,2.194,2.194,0,0,1,1.091,0,10.91,10.91,0,0,0,7.264-1.47c.764-.459,1.953-2.044,2.762-2.2C858.014,384.783,860.156,386.04,861.247,386.282Z" transform="translate(-398.547 -202.943)"/>
    <path id="パス_81" data-name="パス 81" class="cls-21" d="M861.247,385.592a5.743,5.743,0,0,0,2.389.149,3.934,3.934,0,0,0,2.906-3.75,5.743,5.743,0,0,0-2.211-4.427c-.907-.758-1.993-1.292-2.825-2.136a21.924,21.924,0,0,1-2.3-3.532,10.48,10.48,0,0,0-5.381-4.186c-1.642-.574-3.658-.62-4.921.574-.649.614-1.028,1.493-1.751,2.016-1.051.746-2.475.528-3.755.678A7.161,7.161,0,0,0,838,375a10.113,10.113,0,0,0-.528,6.891c.247.976.615,1.918.879,2.871.574,2.021.689,4.14,1.332,6.133s1.97,3.945,3.979,4.542a12.583,12.583,0,0,1,1.292-6.477,1.861,1.861,0,0,1,.907-1.011,2.192,2.192,0,0,1,1.091,0,10.911,10.911,0,0,0,7.264-1.47c.764-.459,1.952-2.044,2.762-2.2C858.014,384.093,860.156,385.35,861.247,385.592Z" transform="translate(-398.547 -202.656)"/>
    <path id="パス_82" data-name="パス 82" class="cls-22" d="M994.282,337.49l-8.751,98.022L946.2,446.422l-39.226-10.91-8.74-98.022Z" transform="translate(-422.564 -189.632)"/>
    <path id="パス_83" data-name="パス 83" class="cls-23" d="M981.86,444.028l31.784-8.809,7.465-83.769H981.86Z" transform="translate(-458.171 -195.568)"/>
    <path id="パス_84" data-name="パス 84" class="cls-24" d="M942.5,384.414h17.009V372.39H929.36l.287,3.227,2.957,33.133h26.909V396.726H943.6Zm2.733,30.348H933.173l1.683,18.881,24.6,6.856h.057V427.953h-.052l-13.391-3.618Z" transform="translate(-435.818 -204.474)"/>
    <path id="パス_85" data-name="パス 85" d="M913.8,291.09h6.11v6.035H925.5V291.09h6.11v18.284H925.5v-6.121H919.91v6.121H913.8Zm25.84,6.064H934.26V291.09h16.871v6.064H945.75v12.22h-6.1v-12.22h0Zm14.172-6.064h6.374l3.922,6.426,3.916-6.426H974.4v18.284h-6.087v-9.061l-4.2,6.5h-.1l-4.209-6.5v9.061h-5.983Zm23.624,0h6.11v12.237h8.614v6.041H977.454V291.09Z" transform="translate(-429.194 -170.934)"/>
    <path id="パス_86" data-name="パス 86" class="cls-25" d="M981.79,408.746h14.8l-1.4,15.6L981.79,427.96V440.5l24.652-6.833.178-2.033,2.825-31.658.293-3.227H981.79v12.025Zm0-24.365v.029h29.045l.241-2.7.574-6.1.287-3.227H981.79v12Z" transform="translate(-458.141 -204.47)"/>
    <path id="パス_87" data-name="パス 87" class="cls-26" d="M387,428.756c-1.12-3.279-2.733-7.465-4.02-8.418a1.2,1.2,0,0,0-.253-.155h-.161v-4.048l-3.02.482a28.867,28.867,0,0,1-1.1-4.485,2.085,2.085,0,0,0,2.268.454c-.052-.08-.092-.167-.138-.253l.138-.057a5.609,5.609,0,0,1-.729-2.751,10.013,10.013,0,0,1,.419-2.6c.54-1.866,1.453-3.612,1.964-5.484a13.334,13.334,0,0,0,.459-3.71,13.516,13.516,0,0,0-1.413-6.116,3.572,3.572,0,0,0-1.068-1.4,13.811,13.811,0,0,0-1.309-.637,7.067,7.067,0,0,1-1.9-1.895,17.077,17.077,0,0,0-8.252-5.507,4.83,4.83,0,0,0-2.636-.207c-2.027.574-2.768,3.061-4.41,4.376-1.453,1.148-3.445,1.281-5.26,1.671a8.946,8.946,0,0,0-4.9,2.567,5.317,5.317,0,0,0-1.315,3.549,3.566,3.566,0,0,0,1.453,3.17,4.553,4.553,0,0,0,3.847.546,13.087,13.087,0,0,0,9.905,16.452l.356.632h0a27.1,27.1,0,0,1,2.452,6.414c-2.779,1.579-5.817,3.055-7.649,3.193a12.879,12.879,0,0,1-.4,2.119,11.7,11.7,0,0,1-2.406,4.738c-2.492,2.8-13.707,23.991-13.707,23.991s-.356.844-.93,2.3c-6.965.856-18.33,2.09-21.505,1.453L309.329,447.3s-4.02,3.072-3.675,6.8l-2.245-2.136s-11.841,9.033,6.856,14.93l28.448,3.3c-2.71,8.177-5.237,17.692-4.456,22.872h.235a10.758,10.758,0,0,0,1.625-.126l-.052.919-2.739,49.057s-.626,9.033,7.787,13.087c0,0,10.285,30.222,6.231,33.65,0,0,.482.253,1.292.609l-8.459,7.465s-6.23,1.556-9.659,1.246a2.475,2.475,0,0,0-2.733,1.843.4.4,0,0,1-.034.2v.6a.362.362,0,0,0,.04.2v.075a1.961,1.961,0,0,0,.069.213v.069c.029.069.063.138.1.207v.046c.04.069.08.138.126.207l.04.057q.075.109.167.218l.046.057c.063.075.132.144.207.218h.035l.23.2.052.04.281.2.069.046.327.19h.052l.35.172h.052l.408.167.086.034.454.149h.075l.488.126h.04l.574.109h.109l.574.086h.109l.66.063c1.281.1,3.009.132,5.007.126h0v.322a.363.363,0,0,0,.04.2v.075a1.99,1.99,0,0,0,.069.212v.069c.029.069.063.138.1.207v.046c.04.069.08.138.126.207l.04.057a2.737,2.737,0,0,0,.167.218l.046.057c.063.075.132.144.207.218h.029l.23.2.052.04.281.2.069.046.322.19h.052l.35.172h.052l.408.167.086.034.454.149h.075l.488.126h.04l.574.109h.109l.574.086h.109l.66.063c8.1.626,33.96-1.246,33.96-1.246v-.075h0v-.092h0c.259-1.206,1.5-8.217-2.911-13.4q.2-.207.379-.431s-3.445-5.92-1.556-7.787-9.124-33.983-9.124-33.983-5.92-9.349-2.492-19.943-.31-22.12-.31-22.12,8.183-2.423,8.332-12.49v-.936a3.307,3.307,0,0,0,.517.035,2.45,2.45,0,0,0,.345,0s-1.556-5.61.31-9.659,5.92-.31,9.659-16.825c2.7-11.95,5.082-25.691,6.2-32.381A17.048,17.048,0,0,0,387,428.756Zm-71.1,35.028-2.842-2.7c.942.391,1.987.769,3.153,1.148l10.71,1.258c-4.778.431-9.24.672-11.02.31Z" transform="translate(-174.286 -205.259)"/>
    <path id="パス_88" data-name="パス 88" class="cls-10" d="M343.612,514.732s-22.039,3.061-26.633,2.142L304.736,505.24s-11.634,8.878,6.736,14.695l34.282,3.979Z" transform="translate(-175.036 -260.222)"/>
    <path id="パス_89" data-name="パス 89" class="cls-27" d="M343.612,514.732s-22.039,3.061-26.633,2.142L304.736,505.24s-11.634,8.878,6.736,14.695l34.282,3.979Z" transform="translate(-175.036 -260.222)"/>
    <path id="パス_90" data-name="パス 90" class="cls-28" d="M256.819,437.166l-47.627-13.207L198.58,304.92H315.2L304.578,423.942Z" transform="translate(-133.354 -175.932)"/>
    <path id="パス_91" data-name="パス 91" class="cls-29" d="M338.723,423.588,347.8,321.88H300.14V434.264Z" transform="translate(-174.624 -183.133)"/>
    <path id="パス_92" data-name="パス 92" class="cls-24" d="M239.029,376.82l1.309,14.6h32.674v-14.6Zm-2.63-29.55,1.326,14.6h35.281v-14.6H236.37Zm36.608,67.467h-.063l-16.262-4.393L255.641,398.7H240.958L243,421.622l29.906,8.321h.069Z" transform="translate(-149.443 -193.917)"/>
    <path id="パス_93" data-name="パス 93" d="M246.38,248.56h17.681v7.4H253.77v7.4h10.29v7.4H246.38Zm21.247,0h17.681v6.431H274.994v1.286h10.29V271.07H267.6v-6.753h10.29v-1.286H267.6V248.56Zm21.247,0h17.681v6.431H296.212v1.286H306.5V271.07H288.816v-6.753h10.29v-1.286h-10.29V248.56Z" transform="translate(-152.192 -153.186)"/>
    <path id="パス_94" data-name="パス 94" class="cls-25" d="M333.96,376.82l2.636-29.55H300v14.6h20.575l-1.326,14.93H300v14.6h17.979l-1.723,18.95L300,414.748v15.189l29.929-8.3.218-2.469,3.445-38.439.356-3.922Z" transform="translate(-174.605 -193.917)"/>
    <path id="パス_95" data-name="パス 95" class="cls-30" d="M371.993,738.19l-10.715,9.486s-6.121,1.533-9.486,1.223-4.9,5.2,3.061,5.817,33.363-1.223,33.363-1.223,2.446-9.8-4.9-15.3Z" transform="translate(-195.038 -356.961)"/>
    <path id="パス_96" data-name="パス 96" class="cls-27" d="M371.993,738.19l-10.715,9.486s-6.121,1.533-9.486,1.223-4.9,5.2,3.061,5.817,33.363-1.223,33.363-1.223,2.446-9.8-4.9-15.3Z" transform="translate(-195.038 -356.961)"/>
    <path id="パス_97" data-name="パス 97" class="cls-31" d="M388.592,757.47a16.888,16.888,0,0,1-.385,3.319s-25.4,1.838-33.363,1.223c-3.83-.293-5.455-1.723-5.742-3.09-.35,1.574,1.039,3.647,5.742,4.02,7.959.614,33.363-1.223,33.363-1.223A17.69,17.69,0,0,0,388.592,757.47Z" transform="translate(-195.035 -365.17)"/>
    <path id="パス_98" data-name="パス 98" class="cls-10" d="M410.84,429.613s6.736,9.486,4.284,15.918,12.857-6.736,12.857-6.736-4.9-8.608-2.446-17.8Z" transform="translate(-220.9 -225.041)"/>
    <path id="パス_99" data-name="パス 99" class="cls-30" d="M390.642,744.59l-10.7,9.486s-6.121,1.533-9.486,1.223-4.9,5.2,3.061,5.817,33.363-1.223,33.363-1.223,2.446-9.8-4.9-15.3Z" transform="translate(-202.814 -359.686)"/>
    <path id="パス_100" data-name="パス 100" class="cls-11" d="M389.844,658.262a8.125,8.125,0,0,1-6.2,2.842c-5.352.253-11.243-2.842-11.243-2.842,3.979-3.365-6.121-33.059-6.121-33.059-8.263-3.979-7.654-12.857-7.654-12.857l2.676-48.178.678-12.1,8.573-5.2,6.753,5.168,6.409,4.915a25.762,25.762,0,0,1,.8,4.777c.747,11.249-8.148,13.9-8.148,13.9s3.675,11.324.3,21.735,2.446,19.593,2.446,19.593,11.02,31.835,9.188,33.673S389.844,658.262,389.844,658.262Z" transform="translate(-199.057 -275.5)"/>
    <path id="パス_101" data-name="パス 101" class="cls-27" d="M389.844,658.262a8.125,8.125,0,0,1-6.2,2.842c-5.352.253-11.243-2.842-11.243-2.842,3.979-3.365-6.121-33.059-6.121-33.059-8.263-3.979-7.654-12.857-7.654-12.857l2.676-48.178.678-12.1,8.573-5.2,6.753,5.168,6.409,4.915a25.762,25.762,0,0,1,.8,4.777c.747,11.249-8.148,13.9-8.148,13.9s3.675,11.324.3,21.735,2.446,19.593,2.446,19.593,11.02,31.835,9.188,33.673S389.844,658.262,389.844,658.262Z" transform="translate(-199.057 -275.5)"/>
    <path id="パス_102" data-name="パス 102" class="cls-11" d="M404.849,664.643c-5.2,6.426-17.445,0-17.445,0a1.953,1.953,0,0,0,.534-.833c2.245-6.1-7.574-35.287-7.574-35.287-8.263-3.979-9.188-13.466-9.188-13.466l-2.165-49.051-.281-6.351,12.88-4.916,3.956-1.51,13.179,10.1a23.881,23.881,0,0,1,.827,6.42c-.167,9.883-8.189,12.271-8.189,12.271s3.675,11.324.3,21.735,2.464,19.564,2.464,19.564,11.02,31.836,9.188,33.673S404.849,664.643,404.849,664.643Z" transform="translate(-203.252 -278.212)"/>
    <path id="パス_103" data-name="パス 103" class="cls-5" d="M397.256,567.043c-2.647-.379-8-3.566-10.755-5.294-1.051-.66-1.723-1.1-1.723-1.1s-2.756-7.654-10.1-1.837a27.5,27.5,0,0,1-7.982,4.513,18.68,18.68,0,0,1-3.405.856l.678-12.1,8.573-5.2,6.753,5.168,3.956-1.51,13.179,10.1A23.873,23.873,0,0,1,397.256,567.043Z" transform="translate(-200.995 -277.565)"/>
    <path id="パス_104" data-name="パス 104" class="cls-32" d="M412.406,464.5c-1.091,6.569-3.445,20.1-6.087,31.807-3.675,16.222-7.654,12.547-9.486,16.526s-.3,9.486-.3,9.486c-3.061.3-13.162-6.426-13.162-6.426s-2.756-7.655-10.1-1.838-13.161,5.507-13.161,5.507c-1.533-10.1,9.8-37.038,9.8-37.038s11.02-20.816,13.466-23.544a11.486,11.486,0,0,0,2.366-4.651,12.675,12.675,0,0,0,.391-2.079c3.979-.3,13.782-7.04,13.782-7.04l7.655-1.223v3.979a1.144,1.144,0,0,1,.253.155c1.258.959,2.871,5.047,3.945,8.269A16.749,16.749,0,0,1,412.406,464.5Z" transform="translate(-199.522 -234.13)"/>
    <path id="パス_105" data-name="パス 105" class="cls-10" d="M355.892,515.924l-3.956-.459-30.325-3.52c-18.376-5.817-6.736-14.695-6.736-14.695l12.243,11.634c3.532.706,17.388-.942,23.6-1.723,1.86-.241,3.038-.4,3.038-.4Z" transform="translate(-179.259 -256.891)"/>
    <path id="パス_106" data-name="パス 106" class="cls-5" d="M415.025,457.116s-7.959-6.426-19.92,14.385-14.695,17.445-14.695,17.445,2.446,9.188,1.223,11.02c0,0,8.263-.614,11.324,0S415,476.7,415,476.7,424.821,463.237,415.025,457.116Z" transform="translate(-208.107 -239.547)"/>
    <path id="パス_107" data-name="パス 107" class="cls-5" d="M414.512,454.986s-7.959-6.426-19.9,14.385-14.695,17.445-14.695,17.445,9.486,10.405,12.547,11.02,22.039-23.262,22.039-23.262S424.308,461.107,414.512,454.986Z" transform="translate(-207.903 -238.66)"/>
    <path id="パス_108" data-name="パス 108" class="cls-5" d="M381.193,522.533a36.794,36.794,0,0,0-1.223-8.321c1.861-.241,3.038-.4,3.038-.4L385.15,523Z" transform="translate(-208.077 -263.883)"/>
    <path id="パス_109" data-name="パス 109" class="cls-32" d="M415.025,456.046s-7.959-6.426-19.92,14.39-14.695,17.445-14.695,17.445,2.446,9.188,1.223,11.02c0,0,8.263-.614,11.324,0S415,475.639,415,475.639,424.821,462.167,415.025,456.046Z" transform="translate(-208.107 -239.102)"/>
    <path id="パス_110" data-name="パス 110" class="cls-5" d="M426.088,422.09l-14.718,8.562a31.4,31.4,0,0,1,1.723,2.8,12.91,12.91,0,0,0,2.573.258c3.922,0,5.742-4.117,8.114-6.891C423.607,424.617,425.41,424.559,426.088,422.09Z" transform="translate(-221.133 -225.604)"/>
    <ellipse id="楕円形_8" data-name="楕円形 8" class="cls-10" cx="12.857" cy="12.857" rx="12.857" ry="12.857" transform="translate(181.278 181.672)"/>
    <path id="パス_111" data-name="パス 111" class="cls-5" d="M389.031,394.442a8.786,8.786,0,0,1,4.812-2.527c1.786-.385,3.744-.5,5.168-1.642,1.614-1.292,2.337-3.75,4.33-4.3a4.748,4.748,0,0,1,2.59.207,16.772,16.772,0,0,1,8.108,5.409,6.944,6.944,0,0,0,1.872,1.866,13.592,13.592,0,0,1,1.286.626,3.51,3.51,0,0,1,1.045,1.372,13.311,13.311,0,0,1,.93,9.343c-.5,1.843-1.4,3.554-1.929,5.392a7.11,7.11,0,0,0,.3,5.559,2.267,2.267,0,0,1-2.722-1,10.769,10.769,0,0,1-1.08-2.974,11.341,11.341,0,0,0-3.319-5.168c-.965-.85-2.687-1.424-3.359-.327-.258.425-.241.971-.465,1.413a1.9,1.9,0,0,1-2.544.574,3.9,3.9,0,0,1-1.591-2.36c-1.258-4.267-3.411-6.948-7.97-5.128-1.723.678-3.7,1.148-5.34,0C387.062,399.231,387.481,396.182,389.031,394.442Z" transform="translate(-211.19 -210.377)"/>
    <path id="パス_112" data-name="パス 112" class="cls-33" d="M389.031,393.9a8.786,8.786,0,0,1,4.812-2.527c1.786-.385,3.744-.5,5.168-1.642,1.614-1.292,2.337-3.75,4.33-4.3a4.749,4.749,0,0,1,2.59.207,16.773,16.773,0,0,1,8.108,5.409,6.945,6.945,0,0,0,1.872,1.866,13.548,13.548,0,0,1,1.286.626,3.509,3.509,0,0,1,1.045,1.372,13.311,13.311,0,0,1,.93,9.343c-.5,1.843-1.4,3.555-1.929,5.392a7.11,7.11,0,0,0,.3,5.559,2.267,2.267,0,0,1-2.722-1,10.77,10.77,0,0,1-1.08-2.975,11.342,11.342,0,0,0-3.319-5.168c-.965-.85-2.687-1.424-3.359-.327-.258.425-.241.97-.465,1.413a1.9,1.9,0,0,1-2.544.574,3.9,3.9,0,0,1-1.591-2.36c-1.258-4.267-3.411-6.948-7.97-5.128-1.723.678-3.7,1.149-5.34,0C387.062,398.7,387.481,395.647,389.031,393.9Z" transform="translate(-211.19 -210.152)"/>
    <path id="パス_113" data-name="パス 113" class="cls-27" d="M426.9,448.089h-6.219s-12.243,6.121-12.547,5.817c-.207-.207-2.1.149-3.3.4a12.664,12.664,0,0,0,.391-2.079c3.979-.3,13.782-7.04,13.782-7.04l7.655-1.223v3.979A1.147,1.147,0,0,1,426.9,448.089Z" transform="translate(-218.369 -234.736)"/>
    <path id="パス_114" data-name="パス 114" class="cls-31" d="M407.242,763.86a16.881,16.881,0,0,1-.385,3.319s-25.4,1.838-33.363,1.223c-3.83-.293-5.455-1.723-5.742-3.09-.35,1.573,1.039,3.646,5.742,4.02,7.959.615,33.363-1.223,33.363-1.223A17.7,17.7,0,0,0,407.242,763.86Z" transform="translate(-202.808 -367.891)"/>
    <g id="グループ化_16" data-name="グループ化 16" class="cls-34" transform="translate(160.654 213.838)">
      <path id="パス_115" data-name="パス 115" d="M370.511,563.868a26.2,26.2,0,0,1-10.181,5.168,4.293,4.293,0,0,0,.08.672s5.817.3,13.162-5.507a9.868,9.868,0,0,1,3.933-2.056C375.9,561.359,373.618,561.411,370.511,563.868Z" transform="translate(-360.33 -498.055)"/>
      <path id="パス_116" data-name="パス 116" d="M436.407,459.294c-1.1-3.221-2.687-7.3-3.945-8.269a1.152,1.152,0,0,0-.253-.155s-2.532.086-2.446.155c1.258.959,2.486,4.743,3.583,7.959a16.752,16.752,0,0,1,.666,8.131c-1.091,6.569-3.445,20.1-6.087,31.807-3.675,16.222-7.655,12.547-9.486,16.526-1.5,3.262-.752,7.545-.425,8.987a7.7,7.7,0,0,0,3.181.81s-1.533-5.507.3-9.486,5.817-.3,9.486-16.526c2.659-11.737,5-25.266,6.087-31.807A16.749,16.749,0,0,0,436.407,459.294Z" transform="translate(-384.686 -450.87)"/>
    </g>
    <path id="パス_117" data-name="パス 117" class="cls-3" d="M496.51,557.225a6.7,6.7,0,0,0,2.2-3.319,2.946,2.946,0,0,0-1.539-3.382c-1.413-.54-2.923.436-4.066,1.43s-2.458,2.119-3.956,1.906a6.018,6.018,0,0,0,1.861-5.633,2.355,2.355,0,0,0-.517-1.148c-.787-.839-2.205-.477-3.147.184-2.986,2.1-3.819,6.156-3.836,9.808a18.793,18.793,0,0,1-.058-4.02c-.011-1.332-.379-2.871-1.516-3.572a4.591,4.591,0,0,0-2.3-.545A4.782,4.782,0,0,0,475.883,550c-1.148,1.217-.844,3.267.149,4.594a14.945,14.945,0,0,0,3.888,3.112,8.613,8.613,0,0,1,2.779,2.647,2.62,2.62,0,0,1,.207.471h8.413A23.444,23.444,0,0,0,496.51,557.225Z" transform="translate(-247.683 -277.508)"/>
    <path id="パス_118" data-name="パス 118" class="cls-3" d="M517.791,742.179a9.144,9.144,0,0,0,2.986-4.5c.391-1.786-.373-3.933-2.084-4.594-1.912-.735-3.962.574-5.513,1.935s-3.331,2.871-5.358,2.584a8.16,8.16,0,0,0,2.521-7.637,3.192,3.192,0,0,0-.7-1.55c-1.062-1.149-2.992-.649-4.261.247-4.02,2.871-5.168,8.344-5.2,13.294-.408-1.786-.063-3.646-.075-5.478s-.511-3.859-2.056-4.846a6.2,6.2,0,0,0-3.135-.735c-1.82-.069-3.848.115-5.088,1.447-1.545,1.654-1.149,4.427.2,6.247s3.388,2.963,5.266,4.221a11.678,11.678,0,0,1,3.761,3.589,3.541,3.541,0,0,1,.281.643h11.41A31.786,31.786,0,0,0,517.791,742.179Z" transform="translate(-253.338 -352.515)"/>
  </g>
</svg>
